<?xml version="1.0" encoding="UTF-8" standalone="no"?>
<!-- Created with Inkscape (http://www.inkscape.org/) -->

<svg
   width="200mm"
   height="50mm"
   viewBox="0 0 200 50"
   version="1.1"
   id="svg1"
   xml:space="preserve"
   sodipodi:docname="tgp-logo-3.svg"
   inkscape:version="1.4.2 (ebf0e940, 2025-05-08)"
   xmlns:inkscape="http://www.inkscape.org/namespaces/inkscape"
   xmlns:sodipodi="http://sodipodi.sourceforge.net/DTD/sodipodi-0.dtd"
   xmlns="http://www.w3.org/2000/svg"
   xmlns:svg="http://www.w3.org/2000/svg"><sodipodi:namedview
     id="namedview1"
     pagecolor="#ffffff"
     bordercolor="#000000"
     borderopacity="0.25"
     inkscape:showpageshadow="2"
     inkscape:pageopacity="0.0"
     inkscape:pagecheckerboard="0"
     inkscape:deskcolor="#d1d1d1"
     inkscape:document-units="mm"
     inkscape:zoom="11.859035"
     inkscape:cx="276.87751"
     inkscape:cy="120.54101"
     inkscape:window-width="2680"
     inkscape:window-height="1256"
     inkscape:window-x="204"
     inkscape:window-y="222"
     inkscape:window-maximized="0"
     inkscape:current-layer="g68" /><defs
     id="defs1"><rect
       x="202.25138"
       y="32.436543"
       width="515.28854"
       height="138.97474"
       id="rect1" /><filter
       style="color-interpolation-filters:sRGB"
       inkscape:label="Drop Shadow"
       id="filter88"
       x="-0.039320019"
       y="-0.045340902"
       width="1.07864"
       height="1.0906818"><feFlood
         result="flood"
         in="SourceGraphic"
         flood-opacity="0.498039"
         flood-color="rgb(128,0,255)"
         id="feFlood87" /><feGaussianBlur
         result="blur"
         in="SourceGraphic"
         stdDeviation="2.000000"
         id="feGaussianBlur87" /><feOffset
         result="offset"
         in="blur"
         dx="0.000000"
         dy="0.000000"
         id="feOffset87" /><feComposite
         result="comp1"
         operator="in"
         in="flood"
         in2="offset"
         id="feComposite87" /><feComposite
         result="comp2"
         operator="over"
         in="SourceGraphic"
         in2="comp1"
         id="feComposite88" /></filter><inkscape:perspective
       sodipodi:type="inkscape:persp3d"
       inkscape:vp_x="0 : 526.18109 : 1"
       inkscape:vp_y="0 : 1000 : 0"
       inkscape:vp_z="744.09448 : 526.18109 : 1"
       inkscape:persp3d-origin="372.04724 : 350.78739 : 1"
       id="perspective2914" /><inkscape:perspective
       id="perspective2898"
       inkscape:persp3d-origin="0.5 : 0.33333333 : 1"
       inkscape:vp_z="1 : 0.5 : 1"
       inkscape:vp_y="0 : 1000 : 0"
       inkscape:vp_x="0 : 0.5 : 1"
       sodipodi:type="inkscape:persp3d" /><filter
       style="color-interpolation-filters:sRGB;"
       inkscape:label="Drop Shadow"
       id="filter8"
       x="-0.037706565"
       y="-0.043355679"
       width="1.0754131"
       height="1.0867114"><feFlood
         result="flood"
         in="SourceGraphic"
         flood-opacity="0.498039"
         flood-color="rgb(128,0,255)"
         id="feFlood7" /><feGaussianBlur
         result="blur"
         in="SourceGraphic"
         stdDeviation="5.000000"
         id="feGaussianBlur7" /><feOffset
         result="offset"
         in="blur"
         dx="0.000000"
         dy="0.000000"
         id="feOffset7" /><feComposite
         result="comp1"
         operator="in"
         in="flood"
         in2="offset"
         id="feComposite7" /><feComposite
         result="comp2"
         operator="over"
         in="SourceGraphic"
         in2="comp1"
         id="feComposite8" /></filter></defs><g
     inkscape:label="Layer 1"
     inkscape:groupmode="layer"
     id="layer1"><g
       id="g6"><g
         id="g68"><g
           id="g1"
           transform="matrix(0.32766683,0,0,0.32853874,3.9275184,4.0523496)"><path
             d="M 111.6,103.54 C 121.86,91.41 130.62,69.62 121.57,44.6 117.16,32.42 112.18,25.62 106.38,21.3 102.85,18.67 88.75,12.05 70.08,14.94 56.43,17.06 38.2,25.67 26.35,39.68 14.86,53.29 5.99,64.04 5.58,74.48 c -0.53,13.43 9.59,24.97 10.82,26.84 2.19,3.32 17.13,22.3 45.2,23.27 24.78,0.85 40.92,-10.31 50,-21.05 z"
             fill="#403d3e"
             id="path1"
             style="fill:#4d4d4d"
             sodipodi:nodetypes="ccccccccc" /><path
             d="M 28.43,13.9 C 15.5,23.13 0.97,42.01 3.58,68.49 4.85,81.38 8.02,89.2 12.57,94.81 15.34,98.23 27.36,108.4 46.19,109.9 65.17,111.41 79.6,107.16 94.67,96.68 125.3,75.37 120.79,43.15 119.48,39.4 118.17,35.65 108.36,13.57 81.39,5.72 57.59,-1.2 39.87,5.72 28.43,13.9 Z"
             fill="#5e6367"
             id="path2"
             style="fill:#787878;fill-opacity:1"
             sodipodi:nodetypes="cccccscc" /><path
             d="M 51.15,15.69 C 36.94,15.18 23.36,26.31 22.05,40.05 20.74,53.78 29.24,64.24 42.48,66.37 55.72,68.49 71.03,60.45 74.11,43.61 77.29,26.26 64.72,16.18 51.15,15.69 Z"
             fill="#ffffff"
             id="path3" /><path
             d="m 55.54,39.21 c 0,0 3.42,-0.71 4.1,-5.75 0.67,-4.96 -1.79,-9.19 -7.53,-10.71 -6.24,-1.65 -10.47,1.78 -11.57,5.39 -1.53,5.02 0.73,7.41 0.73,7.41 0,0 -6.12,1.47 -6.61,8.69 -0.46,6.81 4.19,10.47 8.86,11.59 5.77,1.39 12.31,-0.19 13.91,-7.55 1.33,-6.06 -1.89,-9.07 -1.89,-9.07 z"
             fill="#303030"
             id="path4" /><path
             d="m 45.92,30.03 c -0.55,2.07 0.55,4.07 2.71,4.62 2.33,0.59 4.45,-0.18 5.02,-2.56 0.5,-2.11 -0.5,-3.97 -2.96,-4.57 -2.02,-0.5 -4.17,0.25 -4.77,2.51 z"
             fill="#ffffff"
             id="path5" /><path
             d="m 47.68,40.32 c -2.62,-0.81 -6.08,0.2 -6.63,3.72 -0.55,3.52 1.56,5.32 4.32,5.82 2.76,0.5 5.37,-0.95 5.88,-3.77 0.5,-2.81 -0.96,-4.97 -3.57,-5.77 z"
             fill="#ffffff"
             id="path6" /></g><text
           xml:space="preserve"
           transform="matrix(0.30642635,0,0,0.30642635,-15.096605,-4.993573)"
           id="text1"
           style="text-align:start;writing-mode:lr-tb;direction:ltr;white-space:pre;shape-inside:url(#rect1);shape-padding:3.49485;display:inline;fill:#5e6367;fill-opacity:1;stroke-width:1.63171;stroke-dasharray:none"><tspan
             x="205.74609"
             y="82.619495"
             id="tspan17"><tspan
               style="font-weight:bold;font-size:52.9582px;font-family:Rockwell;-inkscape-font-specification:'Rockwell, Bold';fill:#ea3338;stroke:#000000"
               id="tspan5">To</tspan><tspan
               style="font-weight:bold;font-size:52.9582px;font-family:Rockwell;-inkscape-font-specification:'Rockwell, Bold';fill:#ee7b30;stroke:#000000"
               id="tspan7">rc</tspan><tspan
               style="font-weight:bold;font-size:52.9582px;font-family:Rockwell;-inkscape-font-specification:'Rockwell, Bold';fill:#fbe54d;stroke:#000000"
               id="tspan8">h G</tspan><tspan
               style="font-weight:bold;font-size:52.9582px;font-family:Rockwell;-inkscape-font-specification:'Rockwell, Bold';fill:#4eac50;stroke:#000000"
               id="tspan12">eo</tspan><tspan
               style="font-weight:bold;font-size:52.9582px;font-family:Rockwell;-inkscape-font-specification:'Rockwell, Bold';fill:#00c0c0;stroke:#000000"
               id="tspan13">me</tspan><tspan
               style="font-weight:bold;font-size:52.9582px;font-family:Rockwell;-inkscape-font-specification:'Rockwell, Bold';fill:#400098;stroke:#000000"
               id="tspan14">tr</tspan><tspan
               style="font-weight:bold;font-size:52.9582px;font-family:Rockwell;-inkscape-font-specification:'Rockwell, Bold';fill:#8e008e;stroke:#000000"
               id="tspan15">ic</tspan><tspan
               style="font-weight:bold;font-size:52.9582px;font-family:Rockwell;-inkscape-font-specification:'Rockwell, Bold';stroke:#000000"
               id="tspan16">
</tspan></tspan><tspan
             x="205.74609"
             y="148.81724"
             id="tspan25"><tspan
               style="font-weight:bold;font-size:52.9582px;font-family:Rockwell;-inkscape-font-specification:'Rockwell, Bold';fill:#787878;stroke:#000000"
               id="tspan19">P</tspan><tspan
               style="font-weight:bold;font-size:52.9582px;font-family:Rockwell;-inkscape-font-specification:'Rockwell, Bold';stroke:#000000"
               id="tspan23">      </tspan><tspan
               style="font-weight:bold;font-size:52.9582px;font-family:Rockwell;-inkscape-font-specification:'Rockwell, Bold';fill:#787878;stroke:#000000"
               id="tspan24">L</tspan></tspan></text><g
           style="fill:#000000"
           id="g2"
           transform="matrix(0.07219511,0,0,0.07219511,61.019105,22.696029)"><g
             id="g4">
	<path
   d="m 83.236,112.572 c -3.439,-1.026 -7.001,-1.547 -10.588,-1.547 -18.632,0 -35.779,13.852 -41.699,33.685 -7.215,24.173 4.501,49.088 26.118,55.54 3.438,1.026 6.999,1.546 10.586,1.546 0.002,0 10e-4,0 0.002,0 18.631,0 35.778,-13.852 41.698,-33.685 7.215,-24.171 -4.501,-49.086 -26.117,-55.539 z m 18.451,53.252 c -4.916,16.471 -18.911,27.973 -34.033,27.973 -2.813,0 -5.604,-0.408 -8.3,-1.212 -17.389,-5.19 -26.692,-25.64 -20.739,-45.586 4.916,-16.47 18.911,-27.973 34.033,-27.973 2.812,0 5.604,0.408 8.3,1.213 17.389,5.19 26.692,25.64 20.739,45.585 z"
   id="path1-7" />
	<path
   d="m 253.287,88.418 c -25.62,-3.337 -50.912,4.439 -70.151,21.399 C 170.65,91.084 151.82,76.429 128.612,69.501 119.27,66.712 109.634,65.299 99.973,65.299 c -21.08,0 -42.099,6.905 -59.185,19.443 -17.662,12.961 -30.318,30.936 -36.601,51.982 -15.77,52.837 14.387,108.653 67.224,124.423 9.342,2.789 18.978,4.202 28.638,4.202 21.08,0 42.1,-6.905 59.185,-19.443 5.187,-3.806 9.929,-8.055 14.217,-12.677 14.351,17.347 34.363,28.428 56.873,31.361 3.884,0.507 7.735,0.753 11.552,0.753 43.908,-0.003 82.192,-32.664 88.022,-77.353 6.323,-48.57 -28.044,-93.238 -76.611,-99.572 z M 126.323,77.167 c 28.65,8.551 50.046,29.903 59.821,55.946 L 45.571,91.156 C 61.285,79.64 80.603,73.298 99.972,73.298 c 8.886,0 17.752,1.302 26.351,3.869 z M 73.698,253.481 C 45.048,244.93 23.652,223.578 13.877,197.535 l 140.573,41.957 c -15.715,11.515 -35.032,17.857 -54.402,17.857 -8.884,0 -17.751,-1.302 -26.35,-3.868 z M 161.926,233.374 10.953,188.313 c -4.08,-15.696 -4.067,-32.66 0.9,-49.302 4.855,-16.265 13.86,-30.523 26.242,-41.739 l 150.973,45.061 c 4.08,15.696 4.067,32.66 -0.9,49.302 -4.855,16.266 -13.86,30.523 -26.242,41.739 z m 160.038,-46.418 c -5.765,44.197 -46.389,75.467 -90.606,69.701 -20.943,-2.729 -39.504,-13.218 -52.618,-29.621 7.658,-9.757 13.453,-20.914 17.094,-33.112 8.007,-26.829 4.167,-54.422 -8.464,-77.155 17.632,-16.085 41.103,-23.514 64.883,-20.419 44.194,5.764 75.466,46.41 69.711,90.606 z"
   id="path2-9" />
	<path
   d="m 269.783,114.19 c -5.449,0 -10.724,1.443 -15.254,4.172 -7.729,4.658 -12.815,12.568 -14.324,22.274 -1.467,9.441 0.649,19.491 5.958,28.301 7.584,12.586 20.371,20.405 33.37,20.405 5.45,0 10.725,-1.443 15.254,-4.172 7.729,-4.657 12.816,-12.568 14.324,-22.274 1.467,-9.441 -0.648,-19.492 -5.958,-28.301 -7.584,-12.586 -20.371,-20.405 -33.37,-20.405 z m 31.423,47.478 c -1.138,7.324 -4.884,13.237 -10.548,16.65 -3.33,2.007 -7.073,3.024 -11.125,3.024 -10.212,0 -20.373,-6.335 -26.519,-16.534 -4.342,-7.206 -6.083,-15.354 -4.904,-22.943 1.138,-7.324 4.884,-13.238 10.548,-16.65 3.331,-2.007 7.073,-3.025 11.125,-3.025 10.211,0 20.373,6.335 26.519,16.534 4.341,7.206 6.083,15.354 4.904,22.944 z"
   id="path3-3" />
	<path
   d="m 284.463,144.994 c 0.954,-3.121 0.846,-6.762 -0.574,-10.243 -2.262,-5.544 -7.277,-9.269 -12.48,-9.269 -1.392,0 -2.744,0.264 -4.021,0.784 -6.162,2.515 -8.788,10.413 -5.853,17.606 1.399,3.429 3.853,6.159 6.751,7.745 -0.283,0.623 -0.542,1.263 -0.741,1.939 -1.11,3.755 -0.841,7.98 0.758,11.897 2.648,6.493 8.489,10.855 14.532,10.855 1.597,0 3.146,-0.302 4.607,-0.898 7.126,-2.908 10.136,-12.106 6.709,-20.504 -1.924,-4.718 -5.538,-8.301 -9.688,-9.912 z m -14.051,-11.32 c 0.311,-0.127 0.646,-0.191 0.997,-0.191 1.651,0 3.924,1.474 5.074,4.291 1.226,3.004 0.538,6.357 -1.471,7.177 -0.311,0.127 -0.646,0.191 -0.996,0.191 -1.651,0 -3.924,-1.474 -5.074,-4.292 -1.226,-3.003 -0.539,-6.357 1.47,-7.176 z m 14.008,34.33 c -0.496,0.203 -1.029,0.306 -1.584,0.306 -2.783,0 -5.714,-2.417 -7.126,-5.877 -0.9,-2.208 -1.08,-4.617 -0.492,-6.608 0.291,-0.984 1.043,-2.742 2.818,-3.466 0.496,-0.203 1.029,-0.306 1.584,-0.306 2.783,0 5.714,2.417 7.126,5.877 1.729,4.24 0.665,8.854 -2.326,10.074 z"
   id="path4-8" />
	<polygon
   points="72.262,137.268 59.763,180.21 67.445,182.445 82.178,131.823 61.439,125.786 59.203,133.467 "
   id="polygon4" />
</g></g><g
           id="g26"
           transform="translate(0.52916667)"><path
             style="fill:#8000e5;fill-opacity:1;stroke:#000000;stroke-width:0.0843239"
             d="m 252.21394,143.26553 -20.53169,-6.13021 -0.10869,-0.37071 c -0.19665,-0.67066 -0.51324,-2.54358 -0.61632,-3.646 -0.14266,-1.52582 -0.0576,-4.49806 0.16937,-5.91602 0.81974,-5.12203 2.94741,-9.53782 6.45054,-13.38753 0.32763,-0.36004 0.79681,-0.82871 1.04262,-1.04148 l 0.44694,-0.38686 20.56002,6.13616 20.56002,6.13616 0.1803,0.808 c 0.68435,3.06673 0.77273,6.392 0.25345,9.53551 -0.64286,3.89164 -2.2782,7.71203 -4.67435,10.91995 -0.77362,1.03571 -2.37324,2.82687 -2.87396,3.21809 l -0.32655,0.25514 z m -3.13484,-2.57793 c 2.31155,-0.47123 4.20583,-1.51778 6.00628,-3.31832 1.93199,-1.93208 3.09853,-4.09148 3.72411,-6.89377 0.15933,-0.71371 0.18519,-1.08846 0.18804,-2.72481 0.003,-1.68573 -0.0185,-1.99489 -0.19267,-2.77261 -0.6524,-2.91378 -2.18499,-5.37574 -4.34394,-6.97808 -1.79229,-1.33023 -4.15388,-2.0441 -6.42219,-1.94135 -3.00023,0.13591 -5.70752,1.42777 -7.922,3.7802 -2.91512,3.09672 -4.24124,7.69692 -3.42477,11.88026 0.99302,5.08796 4.65359,8.61018 9.49165,9.13292 0.59466,0.0643 2.22899,-0.0286 2.89549,-0.16444 z"
             id="path12"
             transform="scale(0.26458333)" /><path
             style="fill:#16502d;fill-opacity:1;stroke:#000000;stroke-width:0.377953;stroke-dasharray:none;stroke-opacity:1"
             d="m 293.36283,155.9021 c -4.66671,-0.22623 -9.24266,-2.03944 -12.90156,-5.11223 -0.83001,-0.69706 -2.31392,-2.18442 -2.73419,-2.74054 l -0.24074,-0.31856 0.22931,-0.31387 c 3.05182,-4.17723 4.75166,-8.47535 5.37657,-13.59488 0.13994,-1.14645 0.13994,-4.67189 0,-5.81835 -0.42676,-3.49625 -1.38744,-6.70153 -2.8708,-9.57836 l -0.40879,-0.79281 0.76702,-0.63969 c 1.91638,-1.59826 4.65314,-3.12367 7.00699,-3.90555 2.45366,-0.81503 4.42776,-1.13443 6.99888,-1.13238 3.5125,0.003 6.56115,0.71149 9.69725,2.25425 6.37013,3.13371 10.79687,9.05854 12.02315,16.09201 1.13413,6.50492 -0.94672,13.58008 -5.41246,18.40304 -4.65188,5.02401 -10.74732,7.52674 -17.53063,7.19792 z m 13.22132,-18.58808 c 3.32736,-0.68561 5.74246,-3.29199 6.38442,-6.89005 0.2185,-1.22461 0.1438,-3.32603 -0.15947,-4.48623 -0.30017,-1.14839 -0.72506,-2.21789 -1.24035,-3.12218 -1.9273,-3.38218 -4.97254,-5.48603 -8.48879,-5.86461 -3.83926,-0.41336 -7.3172,1.85845 -8.56558,5.59507 -0.47903,1.43383 -0.61722,3.49611 -0.34354,5.12658 0.60815,3.62296 3.0701,7.03622 6.24355,8.65608 1.02823,0.52485 1.62607,0.74252 2.60352,0.94792 0.97963,0.20586 2.66307,0.22352 3.56624,0.0374 z"
             id="path13"
             transform="scale(0.26458333)" /><path
             style="fill:#000000;fill-opacity:1;stroke:#000000;stroke-width:0.059626"
             d="m 253.91731,158.08953 c -0.16397,-0.0131 -0.74085,-0.0786 -1.28196,-0.14562 -3.1229,-0.38661 -6.05857,-1.27337 -8.87745,-2.68156 -2.74555,-1.37156 -4.89798,-2.92118 -7.07512,-5.09369 -6.36481,-6.35128 -9.21056,-15.46874 -7.56535,-24.23855 1.37773,-7.34398 5.63255,-13.75118 11.81466,-17.79129 3.07282,-2.00815 6.54187,-3.40009 10.12317,-4.06188 2.63717,-0.48733 5.59113,-0.57101 8.22839,-0.2331 5.87698,0.75301 11.32061,3.35787 15.49003,7.41223 1.39211,1.3537 2.65908,2.83929 3.55349,4.16666 l 0.25225,0.37437 0.3991,-0.33635 c 0.50276,-0.42373 1.69404,-1.32126 2.24498,-1.69142 1.21055,-0.81332 3.21943,-1.85791 4.6371,-2.41123 4.1978,-1.63842 8.96264,-2.05059 13.43006,-1.16173 8.88297,1.76741 16.01277,8.31856 18.56967,17.0626 0.38917,1.33088 0.67157,2.78988 0.85074,4.39523 0.11423,1.02352 0.0959,3.75329 -0.0327,4.85952 -0.5492,4.72574 -2.259,8.84913 -5.21685,12.58109 -0.70218,0.88594 -2.74096,2.93466 -3.59767,3.61521 -3.72505,2.95907 -7.77964,4.68307 -12.41956,5.28078 -1.29503,0.16682 -4.54018,0.15255 -5.84335,-0.0257 -5.48783,-0.75063 -10.17327,-3.02245 -13.92869,-6.75357 -0.51162,-0.50831 -1.10596,-1.12496 -1.32076,-1.37034 l -0.39054,-0.44613 -0.88599,0.86351 c -2.26447,2.20702 -4.58707,3.84371 -7.32442,5.16139 -2.75341,1.3254 -5.61499,2.15971 -8.79483,2.56416 -0.71567,0.091 -4.28413,0.16568 -5.0384,0.10541 z m 3.51793,-2.1099 c 4.59141,-0.3068 8.82674,-1.75698 12.65562,-4.3333 0.36894,-0.24824 0.67079,-0.4723 0.67079,-0.49791 0,-0.0256 -0.12745,-0.0878 -0.28322,-0.13828 -0.19695,-0.0638 -36.71698,-10.96198 -38.01019,-11.34289 -0.0944,-0.0278 -0.0963,-0.0114 -0.0227,0.19685 0.34417,0.97392 1.20984,2.74212 1.95029,3.98362 1.68874,2.8315 4.06818,5.43569 6.74926,7.38677 4.65128,3.38483 10.62156,5.12391 16.29013,4.74514 z m 38.54821,0.002 c 7.34244,-0.49475 13.82084,-4.45297 17.60703,-10.75769 1.54361,-2.57038 2.51297,-5.40898 2.94381,-8.62036 0.13635,-1.01628 0.15409,-4.07728 0.0296,-5.09802 -0.46644,-3.8229 -1.82815,-7.36638 -3.99102,-10.38549 -3.67355,-5.12783 -9.12424,-8.34483 -15.45647,-9.12242 -1.06766,-0.13111 -3.85384,-0.14823 -4.85952,-0.0299 -2.80343,0.32997 -5.13547,1.01877 -7.54269,2.22785 -1.73154,0.8697 -3.52681,2.0812 -4.72924,3.19142 l -0.27225,0.25137 0.43895,0.85171 c 0.79985,1.55198 1.50736,3.34121 1.95466,4.94316 0.13517,0.48411 0.26851,0.86613 0.29632,0.84895 0.0278,-0.0172 0.0331,0.0381 0.0119,0.12282 -0.025,0.0998 -0.0141,0.15406 0.0309,0.15406 0.0383,0 0.0533,0.0264 0.0334,0.0586 -0.0586,0.0949 0.0346,0.48174 0.10548,0.43791 0.0402,-0.0249 0.0485,-8.2e-4 0.0229,0.066 -0.056,0.14601 0.0841,0.87279 0.1593,0.82631 0.0368,-0.0227 0.0438,0.005 0.0183,0.0714 -0.0501,0.13051 0.0853,1.07388 0.14113,0.98352 0.0215,-0.0348 0.0377,0.0786 0.0359,0.25202 -0.005,0.52805 0.10133,1.47482 0.14296,1.26931 0.0421,-0.20763 0.0612,0.5379 0.0612,2.38504 0,1.86372 -0.0174,2.58559 -0.0585,2.42084 -0.0207,-0.0832 -0.0679,0.16355 -0.1127,0.58963 -0.0424,0.40299 -0.14604,1.11133 -0.23034,1.5741 -0.0843,0.46276 -0.15578,0.93983 -0.15882,1.06013 -0.003,0.12031 -0.0222,0.20844 -0.0426,0.19585 -0.0608,-0.0376 -0.18187,0.59952 -0.13642,0.71797 0.0252,0.0657 0.0187,0.0949 -0.0163,0.0733 -0.0335,-0.0207 -0.16281,0.33829 -0.30406,0.84416 -0.85524,3.06297 -2.48471,6.35484 -4.37732,8.8431 -0.19184,0.25222 -0.3488,0.48069 -0.3488,0.50771 0,0.0707 0.94392,1.15846 1.48076,1.70643 4.44441,4.53651 10.80315,6.96492 17.12255,6.5391 z m -22.53949,-7.07322 c 4.21038,-4.04122 6.91574,-9.69281 7.48516,-15.63671 0.1142,-1.19211 0.11409,-3.53388 -2.2e-4,-4.72718 -0.10151,-1.05954 -0.321,-2.41264 -0.53946,-3.32556 l -0.15076,-0.63002 -20.55431,-6.13519 c -11.30487,-3.37436 -20.58468,-6.14591 -20.62181,-6.15901 -0.0891,-0.0314 -1.52382,1.39417 -2.20464,2.19064 -2.56557,3.00137 -4.30729,6.36146 -5.29905,10.22281 -0.85635,3.33411 -1.00079,6.93392 -0.41697,10.39198 0.14702,0.87083 0.40114,2.01558 0.46064,2.07509 0.0359,0.0359 41.06181,12.29556 41.16998,12.30271 0.0402,0.003 0.34231,-0.25365 0.67144,-0.56956 z m 5.83942,-27.24385 c -0.28653,-0.7441 -0.86623,-1.9769 -1.31651,-2.79971 -1.23955,-2.26505 -2.67199,-4.14826 -4.55927,-5.99397 -1.89259,-1.85091 -3.74905,-3.17799 -6.13407,-4.3849 -2.90298,-1.46902 -5.81983,-2.31028 -9.09296,-2.62257 -1.42225,-0.13569 -4.08595,-0.0917 -5.42597,0.0897 -3.56276,0.48218 -6.854,1.63218 -9.88176,3.45281 -0.93908,0.56468 -1.87426,1.21645 -1.81647,1.26597 0.0227,0.0195 5.91749,1.78767 13.09944,3.92928 7.18196,2.14161 15.7681,4.70573 19.08032,5.69804 3.31223,0.99231 6.06684,1.80668 6.12136,1.80972 0.0854,0.005 0.0751,-0.057 -0.0741,-0.44437 z"
             id="path14"
             transform="scale(0.26458333)" /></g><path
           style="fill:#ffffff;stroke:#000000;stroke-width:0.159352;stroke-dasharray:none;stroke-opacity:1"
           d="m 247.49194,138.44639 c -4.72991,-1.01341 -7.63312,-6.11512 -6.53799,-11.489 0.60285,-2.95826 2.30422,-5.55373 4.67428,-7.13072 2.09675,-1.39512 4.53682,-1.8458 6.82724,-1.26097 0.71419,0.18236 2.09937,0.85962 2.71967,1.32972 2.5195,1.90946 3.96503,5.5086 3.57909,8.9114 -0.55537,4.89661 -3.88966,8.83825 -8.17211,9.66067 -0.79112,0.15193 -2.33167,0.14141 -3.09018,-0.0211 z m 3.57753,-9.72596 c 1.07322,-3.68707 1.95923,-6.77408 1.96892,-6.86004 0.0153,-0.13538 -0.36014,-0.26663 -2.80723,-0.98149 -1.55367,-0.45386 -2.84741,-0.80094 -2.87499,-0.77128 -0.11914,0.12815 -0.60248,2.04866 -0.53205,2.11404 0.0419,0.0389 0.84043,0.29027 1.77443,0.55855 l 1.69819,0.48777 -0.0733,0.21758 c -0.11967,0.3554 -3.28129,11.25322 -3.3031,11.38542 -0.0258,0.1567 2.05818,0.78218 2.14293,0.64317 0.0302,-0.0495 0.93294,-3.10666 2.00616,-6.79372 z"
           id="path7"
           transform="scale(0.26458333)" /><path
           style="fill:#ffffff;stroke:#000000;stroke-width:0;stroke-dasharray:none;stroke-opacity:1"
           d="m 267.98134,118.05095 c -7.18861,-2.14977 -15.70337,-4.69563 -18.92167,-5.65746 l -5.85147,-1.74879 0.24393,-0.19831 c 0.46173,-0.37537 2.18535,-1.40145 3.23786,-1.9275 2.49624,-1.24765 5.08171,-2.04848 8.0525,-2.49421 0.50417,-0.0757 1.57974,-0.11372 3.2043,-0.11342 2.78667,5.1e-4 3.83271,0.12191 6.15565,0.71442 7.52922,1.92048 13.78869,7.30091 16.85963,14.49199 0.33018,0.77315 0.35019,0.86037 0.19488,0.8494 -0.058,-0.004 -5.987,-1.76635 -13.17561,-3.91612 z"
           id="path8"
           transform="scale(0.26458333)" /><path
           style="fill:#ffffff;stroke:#000000;stroke-width:0;stroke-dasharray:none;stroke-opacity:1"
           d="m 256.30248,155.90873 c -0.16233,-0.0183 -0.69357,-0.0755 -1.18054,-0.12717 -1.8144,-0.19251 -4.09862,-0.74016 -5.92323,-1.42012 -6.49694,-2.42114 -11.59636,-7.31292 -14.37101,-13.78586 -0.15724,-0.36681 -0.27525,-0.69566 -0.26226,-0.73077 0.013,-0.0351 2.60395,0.70712 5.75766,1.64941 3.15371,0.94228 11.67253,3.48481 18.93071,5.65006 7.25818,2.16526 13.22725,3.96594 13.2646,4.00153 0.0374,0.0356 -0.34211,0.33129 -0.84324,0.65712 -4.1117,2.67342 -8.49792,4.02787 -13.30676,4.1091 -0.97394,0.0165 -1.90361,0.015 -2.06593,-0.003 z"
           id="path9"
           transform="scale(0.26458333)" /><path
           style="fill:#ffffff;stroke:#000000;stroke-width:0;stroke-dasharray:none;stroke-opacity:1"
           d="m 247.1955,138.24374 c -0.78018,-0.20312 -1.88618,-0.72483 -2.56584,-1.21035 -0.72086,-0.51494 -1.79326,-1.66149 -2.26988,-2.42682 -1.0923,-1.75396 -1.55339,-3.60642 -1.46336,-5.87909 0.0884,-2.23224 0.72224,-4.11865 2.02334,-6.02207 1.33177,-1.94829 3.33903,-3.40575 5.49843,-3.99239 0.72859,-0.19794 1.00375,-0.22916 2.02378,-0.22968 1.48747,-7.4e-4 2.03628,0.12784 3.37295,0.79027 1.69256,0.83881 2.77514,1.92284 3.69195,3.6969 0.88533,1.71313 1.20048,3.13887 1.13119,5.11749 -0.0497,1.42024 -0.25522,2.41663 -0.77704,3.76781 -1.23998,3.21072 -3.83062,5.60485 -6.91984,6.39494 -0.90999,0.23273 -2.83867,0.22912 -3.74568,-0.007 z m 1.97094,-2.67582 c 0.0537,-0.0868 1.88564,-6.3107 3.07805,-10.45727 0.51091,-1.77668 0.90865,-3.28316 0.88387,-3.34774 -0.0677,-0.17636 -1.24668,-0.56586 -4.07259,-1.34544 -1.87201,-0.51642 -1.79465,-0.52523 -2.01143,0.22894 -0.27997,0.974 -0.39109,1.57863 -0.30559,1.66276 0.0425,0.0418 0.79826,0.28785 1.67944,0.5467 0.88119,0.25885 1.62581,0.47949 1.65472,0.49031 0.0289,0.0108 -0.15273,0.72167 -0.40366,1.57967 -0.25092,0.858 -0.98803,3.40036 -1.63803,5.6497 -0.65,2.24934 -1.2008,4.15433 -1.224,4.23331 -0.0302,0.10286 0.053,0.19218 0.29354,0.31487 0.68116,0.3475 1.95601,0.62163 2.06568,0.44419 z"
           id="path10"
           transform="scale(0.26458333)" /><path
           style="fill:#ffffff;stroke:#000000;stroke-width:0;stroke-dasharray:none;stroke-opacity:1"
           d="m 305.46331,135.05563 c -3.42608,-0.74998 -6.33504,-3.94023 -7.04529,-7.72655 -0.19108,-1.01859 -0.12968,-2.76162 0.12904,-3.66358 0.47495,-1.65579 1.41427,-2.91147 2.77783,-3.71341 0.85921,-0.50531 1.50125,-0.68483 2.63733,-0.73741 1.15458,-0.0534 2.11521,0.1262 3.1986,0.59811 3.5595,1.55048 6.10275,5.90525 5.64663,9.66867 -0.0575,0.47483 -0.18153,1.11446 -0.27552,1.42141 -0.59025,1.92755 -1.99541,3.40564 -3.82215,4.02049 -0.90891,0.30592 -2.21085,0.35897 -3.24647,0.13227 z m 3.53986,-1.35168 c 0.93016,-0.35343 1.66818,-1.1351 2.03813,-2.15867 0.22568,-0.62442 0.30193,-1.85936 0.16034,-2.59676 -0.24382,-1.26978 -1.25297,-2.71239 -2.34263,-3.34885 l -0.49755,-0.29062 0.0368,-0.89375 c 0.0591,-1.43312 -0.32717,-2.43681 -1.29546,-3.36661 -1.86146,-1.78746 -4.45188,-1.25993 -5.27789,1.07482 -0.11997,0.33909 -0.17315,0.71003 -0.17813,1.24235 -0.008,0.8429 0.12317,1.35648 0.55926,2.19149 0.27373,0.52413 1.10988,1.426 1.41056,1.52144 0.12137,0.0385 0.15461,0.0962 0.11229,0.19467 -0.31031,0.72239 -0.38272,2.11643 -0.15549,2.99334 0.46556,1.79665 1.88792,3.25538 3.50691,3.59657 0.50536,0.1065 1.4233,0.0304 1.92284,-0.15942 z"
           id="path11"
           transform="scale(0.26458333)" /><path
           style="fill:#ffffff;stroke:#000000;stroke-width:0;stroke-dasharray:none;stroke-opacity:1"
           d="m 304.99415,125.22836 c -0.38665,-0.16839 -0.86759,-0.78188 -1.01768,-1.29816 -0.2067,-0.71106 -0.005,-1.41944 0.45801,-1.61137 0.32395,-0.13419 0.60876,-0.0519 1.0105,0.29199 0.82009,0.70196 0.97577,2.24587 0.26361,2.61414 -0.28675,0.14829 -0.38072,0.14873 -0.71444,0.003 z"
           id="path15"
           transform="scale(0.26458333)" /><path
           style="fill:#ffffff;stroke:#000000;stroke-width:0;stroke-dasharray:none;stroke-opacity:1"
           d="m 307.17067,131.49414 c -1.48509,-0.73511 -1.98893,-3.13682 -0.83681,-3.98894 0.50592,-0.37418 1.35911,-0.12126 1.98338,0.58795 0.93623,1.06361 0.94712,2.76228 0.0217,3.38562 -0.35645,0.24009 -0.705,0.24468 -1.16826,0.0154 z"
           id="path16"
           transform="scale(0.26458333)" /></g></g></g></svg>
