<?xml version="1.0" encoding="UTF-8" standalone="no"?>
<!-- Created with Inkscape (http://www.inkscape.org/) -->

<svg
   width="200mm"
   height="50mm"
   viewBox="0 0 200 50"
   version="1.1"
   id="svg1"
   xml:space="preserve"
   xmlns="http://www.w3.org/2000/svg"
   xmlns:svg="http://www.w3.org/2000/svg"><defs
     id="defs1"><rect
       x="202.25138"
       y="32.436543"
       width="515.28854"
       height="138.97474"
       id="rect1" /><filter
       style="color-interpolation-filters:sRGB"
       id="filter88"
       x="-0.039320019"
       y="-0.045340902"
       width="1.07864"
       height="1.0906818"><feFlood
         result="flood"
         in="SourceGraphic"
         flood-opacity="0.498039"
         flood-color="rgb(128,0,255)"
         id="feFlood87" /><feGaussianBlur
         result="blur"
         in="SourceGraphic"
         stdDeviation="2.000000"
         id="feGaussianBlur87" /><feOffset
         result="offset"
         in="blur"
         dx="0.000000"
         dy="0.000000"
         id="feOffset87" /><feComposite
         result="comp1"
         operator="in"
         in="flood"
         in2="offset"
         id="feComposite87" /><feComposite
         result="comp2"
         operator="over"
         in="SourceGraphic"
         in2="comp1"
         id="feComposite88" /></filter><filter
       style="color-interpolation-filters:sRGB;"
       id="filter8"
       x="-0.037706565"
       y="-0.043355679"
       width="1.0754131"
       height="1.0867114"><feFlood
         result="flood"
         in="SourceGraphic"
         flood-opacity="0.498039"
         flood-color="rgb(128,0,255)"
         id="feFlood7" /><feGaussianBlur
         result="blur"
         in="SourceGraphic"
         stdDeviation="5.000000"
         id="feGaussianBlur7" /><feOffset
         result="offset"
         in="blur"
         dx="0.000000"
         dy="0.000000"
         id="feOffset7" /><feComposite
         result="comp1"
         operator="in"
         in="flood"
         in2="offset"
         id="feComposite7" /><feComposite
         result="comp2"
         operator="over"
         in="SourceGraphic"
         in2="comp1"
         id="feComposite8" /></filter></defs><g
     id="layer1"><g
       id="g6"><g
         id="g68"><g
           id="g1"
           transform="matrix(0.32766683,0,0,0.32853874,3.9275184,4.0523496)"><path
             d="M 111.6,103.54 C 121.86,91.41 130.62,69.62 121.57,44.6 117.16,32.42 112.18,25.62 106.38,21.3 102.85,18.67 88.75,12.05 70.08,14.94 56.43,17.06 38.2,25.67 26.35,39.68 14.86,53.29 5.99,64.04 5.58,74.48 c -0.53,13.43 9.59,24.97 10.82,26.84 2.19,3.32 17.13,22.3 45.2,23.27 24.78,0.85 40.92,-10.31 50,-21.05 z"
             fill="#403d3e"
             id="path1"
             style="fill:#4d4d4d" /><path
             d="M 28.43,13.9 C 15.5,23.13 0.97,42.01 3.58,68.49 4.85,81.38 8.02,89.2 12.57,94.81 15.34,98.23 27.36,108.4 46.19,109.9 65.17,111.41 79.6,107.16 94.67,96.68 125.3,75.37 120.79,43.15 119.48,39.4 118.17,35.65 108.36,13.57 81.39,5.72 57.59,-1.2 39.87,5.72 28.43,13.9 Z"
             fill="#5e6367"
             id="path2"
             style="fill:#787878;fill-opacity:1" /><path
             d="M 51.15,15.69 C 36.94,15.18 23.36,26.31 22.05,40.05 20.74,53.78 29.24,64.24 42.48,66.37 55.72,68.49 71.03,60.45 74.11,43.61 77.29,26.26 64.72,16.18 51.15,15.69 Z"
             fill="#ffffff"
             id="path3" /><path
             d="m 55.54,39.21 c 0,0 3.42,-0.71 4.1,-5.75 0.67,-4.96 -1.79,-9.19 -7.53,-10.71 -6.24,-1.65 -10.47,1.78 -11.57,5.39 -1.53,5.02 0.73,7.41 0.73,7.41 0,0 -6.12,1.47 -6.61,8.69 -0.46,6.81 4.19,10.47 8.86,11.59 5.77,1.39 12.31,-0.19 13.91,-7.55 1.33,-6.06 -1.89,-9.07 -1.89,-9.07 z"
             fill="#303030"
             id="path4" /><path
             d="m 45.92,30.03 c -0.55,2.07 0.55,4.07 2.71,4.62 2.33,0.59 4.45,-0.18 5.02,-2.56 0.5,-2.11 -0.5,-3.97 -2.96,-4.57 -2.02,-0.5 -4.17,0.25 -4.77,2.51 z"
             fill="#ffffff"
             id="path5" /><path
             d="m 47.68,40.32 c -2.62,-0.81 -6.08,0.2 -6.63,3.72 -0.55,3.52 1.56,5.32 4.32,5.82 2.76,0.5 5.37,-0.95 5.88,-3.77 0.5,-2.81 -0.96,-4.97 -3.57,-5.77 z"
             fill="#ffffff"
             id="path6" /></g><text
           xml:space="preserve"
           transform="matrix(0.30642635,0,0,0.30642635,-15.096605,-4.993573)"
           id="text1"
           style="text-align:start;writing-mode:lr-tb;direction:ltr;white-space:pre;shape-inside:url(#rect1);shape-padding:3.49485;display:inline;fill:#787878;fill-opacity:1;stroke-width:1.63171;stroke-dasharray:none"><tspan
             x="205.74609"
             y="82.619495"
             id="tspan8"><tspan
               style="font-weight:bold;font-size:52.9582px;font-family:Rockwell;-inkscape-font-specification:'Rockwell, Bold';stroke:#000000"
               id="tspan5">Torch Geometric</tspan><tspan
               style="font-weight:bold;font-size:52.9582px;font-family:Rockwell;-inkscape-font-specification:'Rockwell, Bold';stroke:#000000"
               id="tspan7">
</tspan></tspan><tspan
             x="205.74609"
             y="148.81724"
             id="tspan10"><tspan
               style="font-weight:bold;font-size:52.9582px;font-family:Rockwell;-inkscape-font-specification:'Rockwell, Bold';stroke:#000000"
               id="tspan9">P      L</tspan></tspan></text><g
           style="fill:#000000"
           id="g2"
           transform="matrix(0.07219511,0,0,0.07219511,61.019105,22.696029)"><g
             id="g4">
	<path
   d="m 83.236,112.572 c -3.439,-1.026 -7.001,-1.547 -10.588,-1.547 -18.632,0 -35.779,13.852 -41.699,33.685 -7.215,24.173 4.501,49.088 26.118,55.54 3.438,1.026 6.999,1.546 10.586,1.546 0.002,0 10e-4,0 0.002,0 18.631,0 35.778,-13.852 41.698,-33.685 7.215,-24.171 -4.501,-49.086 -26.117,-55.539 z m 18.451,53.252 c -4.916,16.471 -18.911,27.973 -34.033,27.973 -2.813,0 -5.604,-0.408 -8.3,-1.212 -17.389,-5.19 -26.692,-25.64 -20.739,-45.586 4.916,-16.47 18.911,-27.973 34.033,-27.973 2.812,0 5.604,0.408 8.3,1.213 17.389,5.19 26.692,25.64 20.739,45.585 z"
   id="path1-7" />
	<path
   d="m 253.287,88.418 c -25.62,-3.337 -50.912,4.439 -70.151,21.399 C 170.65,91.084 151.82,76.429 128.612,69.501 119.27,66.712 109.634,65.299 99.973,65.299 c -21.08,0 -42.099,6.905 -59.185,19.443 -17.662,12.961 -30.318,30.936 -36.601,51.982 -15.77,52.837 14.387,108.653 67.224,124.423 9.342,2.789 18.978,4.202 28.638,4.202 21.08,0 42.1,-6.905 59.185,-19.443 5.187,-3.806 9.929,-8.055 14.217,-12.677 14.351,17.347 34.363,28.428 56.873,31.361 3.884,0.507 7.735,0.753 11.552,0.753 43.908,-0.003 82.192,-32.664 88.022,-77.353 6.323,-48.57 -28.044,-93.238 -76.611,-99.572 z M 126.323,77.167 c 28.65,8.551 50.046,29.903 59.821,55.946 L 45.571,91.156 C 61.285,79.64 80.603,73.298 99.972,73.298 c 8.886,0 17.752,1.302 26.351,3.869 z M 73.698,253.481 C 45.048,244.93 23.652,223.578 13.877,197.535 l 140.573,41.957 c -15.715,11.515 -35.032,17.857 -54.402,17.857 -8.884,0 -17.751,-1.302 -26.35,-3.868 z M 161.926,233.374 10.953,188.313 c -4.08,-15.696 -4.067,-32.66 0.9,-49.302 4.855,-16.265 13.86,-30.523 26.242,-41.739 l 150.973,45.061 c 4.08,15.696 4.067,32.66 -0.9,49.302 -4.855,16.266 -13.86,30.523 -26.242,41.739 z m 160.038,-46.418 c -5.765,44.197 -46.389,75.467 -90.606,69.701 -20.943,-2.729 -39.504,-13.218 -52.618,-29.621 7.658,-9.757 13.453,-20.914 17.094,-33.112 8.007,-26.829 4.167,-54.422 -8.464,-77.155 17.632,-16.085 41.103,-23.514 64.883,-20.419 44.194,5.764 75.466,46.41 69.711,90.606 z"
   id="path2-9" />
	<path
   d="m 269.783,114.19 c -5.449,0 -10.724,1.443 -15.254,4.172 -7.729,4.658 -12.815,12.568 -14.324,22.274 -1.467,9.441 0.649,19.491 5.958,28.301 7.584,12.586 20.371,20.405 33.37,20.405 5.45,0 10.725,-1.443 15.254,-4.172 7.729,-4.657 12.816,-12.568 14.324,-22.274 1.467,-9.441 -0.648,-19.492 -5.958,-28.301 -7.584,-12.586 -20.371,-20.405 -33.37,-20.405 z m 31.423,47.478 c -1.138,7.324 -4.884,13.237 -10.548,16.65 -3.33,2.007 -7.073,3.024 -11.125,3.024 -10.212,0 -20.373,-6.335 -26.519,-16.534 -4.342,-7.206 -6.083,-15.354 -4.904,-22.943 1.138,-7.324 4.884,-13.238 10.548,-16.65 3.331,-2.007 7.073,-3.025 11.125,-3.025 10.211,0 20.373,6.335 26.519,16.534 4.341,7.206 6.083,15.354 4.904,22.944 z"
   id="path3-3" />
	<path
   d="m 284.463,144.994 c 0.954,-3.121 0.846,-6.762 -0.574,-10.243 -2.262,-5.544 -7.277,-9.269 -12.48,-9.269 -1.392,0 -2.744,0.264 -4.021,0.784 -6.162,2.515 -8.788,10.413 -5.853,17.606 1.399,3.429 3.853,6.159 6.751,7.745 -0.283,0.623 -0.542,1.263 -0.741,1.939 -1.11,3.755 -0.841,7.98 0.758,11.897 2.648,6.493 8.489,10.855 14.532,10.855 1.597,0 3.146,-0.302 4.607,-0.898 7.126,-2.908 10.136,-12.106 6.709,-20.504 -1.924,-4.718 -5.538,-8.301 -9.688,-9.912 z m -14.051,-11.32 c 0.311,-0.127 0.646,-0.191 0.997,-0.191 1.651,0 3.924,1.474 5.074,4.291 1.226,3.004 0.538,6.357 -1.471,7.177 -0.311,0.127 -0.646,0.191 -0.996,0.191 -1.651,0 -3.924,-1.474 -5.074,-4.292 -1.226,-3.003 -0.539,-6.357 1.47,-7.176 z m 14.008,34.33 c -0.496,0.203 -1.029,0.306 -1.584,0.306 -2.783,0 -5.714,-2.417 -7.126,-5.877 -0.9,-2.208 -1.08,-4.617 -0.492,-6.608 0.291,-0.984 1.043,-2.742 2.818,-3.466 0.496,-0.203 1.029,-0.306 1.584,-0.306 2.783,0 5.714,2.417 7.126,5.877 1.729,4.24 0.665,8.854 -2.326,10.074 z"
   id="path4-8" />
	<polygon
   points="72.262,137.268 59.763,180.21 67.445,182.445 82.178,131.823 61.439,125.786 59.203,133.467 "
   id="polygon4" />
</g></g><g
           id="g26"
           transform="translate(0.52916667)"><path
             style="fill:#8000e5;fill-opacity:1;stroke:#000000;stroke-width:0.0843239"
             d="m 252.21394,143.26553 -20.53169,-6.13021 -0.10869,-0.37071 c -0.19665,-0.67066 -0.51324,-2.54358 -0.61632,-3.646 -0.14266,-1.52582 -0.0576,-4.49806 0.16937,-5.91602 0.81974,-5.12203 2.94741,-9.53782 6.45054,-13.38753 0.32763,-0.36004 0.79681,-0.82871 1.04262,-1.04148 l 0.44694,-0.38686 20.56002,6.13616 20.56002,6.13616 0.1803,0.808 c 0.68435,3.06673 0.77273,6.392 0.25345,9.53551 -0.64286,3.89164 -2.2782,7.71203 -4.67435,10.91995 -0.77362,1.03571 -2.37324,2.82687 -2.87396,3.21809 l -0.32655,0.25514 z m -3.13484,-2.57793 c 2.31155,-0.47123 4.20583,-1.51778 6.00628,-3.31832 1.93199,-1.93208 3.09853,-4.09148 3.72411,-6.89377 0.15933,-0.71371 0.18519,-1.08846 0.18804,-2.72481 0.003,-1.68573 -0.0185,-1.99489 -0.19267,-2.77261 -0.6524,-2.91378 -2.18499,-5.37574 -4.34394,-6.97808 -1.79229,-1.33023 -4.15388,-2.0441 -6.42219,-1.94135 -3.00023,0.13591 -5.70752,1.42777 -7.922,3.7802 -2.91512,3.09672 -4.24124,7.69692 -3.42477,11.88026 0.99302,5.08796 4.65359,8.61018 9.49165,9.13292 0.59466,0.0643 2.22899,-0.0286 2.89549,-0.16444 z"
             id="path12"
             transform="scale(0.26458333)" /><path
             style="fill:#16502d;fill-opacity:1;stroke:#000000;stroke-width:0.377953;stroke-dasharray:none;stroke-opacity:1"
             d="m 293.36283,155.9021 c -4.66671,-0.22623 -9.24266,-2.03944 -12.90156,-5.11223 -0.83001,-0.69706 -2.31392,-2.18442 -2.73419,-2.74054 l -0.24074,-0.31856 0.22931,-0.31387 c 3.05182,-4.17723 4.75166,-8.47535 5.37657,-13.59488 0.13994,-1.14645 0.13994,-4.67189 0,-5.81835 -0.42676,-3.49625 -1.38744,-6.70153 -2.8708,-9.57836 l -0.40879,-0.79281 0.76702,-0.63969 c 1.91638,-1.59826 4.65314,-3.12367 7.00699,-3.90555 2.45366,-0.81503 4.42776,-1.13443 6.99888,-1.13238 3.5125,0.003 6.56115,0.71149 9.69725,2.25425 6.37013,3.13371 10.79687,9.05854 12.02315,16.09201 1.13413,6.50492 -0.94672,13.58008 -5.41246,18.40304 -4.65188,5.02401 -10.74732,7.52674 -17.53063,7.19792 z m 13.22132,-18.58808 c 3.32736,-0.68561 5.74246,-3.29199 6.38442,-6.89005 0.2185,-1.22461 0.1438,-3.32603 -0.15947,-4.48623 -0.30017,-1.14839 -0.72506,-2.21789 -1.24035,-3.12218 -1.9273,-3.38218 -4.97254,-5.48603 -8.48879,-5.86461 -3.83926,-0.41336 -7.3172,1.85845 -8.56558,5.59507 -0.47903,1.43383 -0.61722,3.49611 -0.34354,5.12658 0.60815,3.62296 3.0701,7.03622 6.24355,8.65608 1.02823,0.52485 1.62607,0.74252 2.60352,0.94792 0.97963,0.20586 2.66307,0.22352 3.56624,0.0374 z"
             id="path13"
             transform="scale(0.26458333)" /><path
             style="fill:#000000;fill-opacity:1;stroke:#000000;stroke-width:0.059626"
             d="m 253.91731,158.08953 c -0.16397,-0.0131 -0.74085,-0.0786 -1.28196,-0.14562 -3.1229,-0.38661 -6.05857,-1.27337 -8.87745,-2.68156 -2.74555,-1.37156 -4.89798,-2.92118 -7.07512,-5.09369 -6.36481,-6.35128 -9.21056,-15.46874 -7.56535,-24.23855 1.37773,-7.34398 5.63255,-13.75118 11.81466,-17.79129 3.07282,-2.00815 6.54187,-3.40009 10.12317,-4.06188 2.63717,-0.48733 5.59113,-0.57101 8.22839,-0.2331 5.87698,0.75301 11.32061,3.35787 15.49003,7.41223 1.39211,1.3537 2.65908,2.83929 3.55349,4.16666 l 0.25225,0.37437 0.3991,-0.33635 c 0.50276,-0.42373 1.69404,-1.32126 2.24498,-1.69142 1.21055,-0.81332 3.21943,-1.85791 4.6371,-2.41123 4.1978,-1.63842 8.96264,-2.05059 13.43006,-1.16173 8.88297,1.76741 16.01277,8.31856 18.56967,17.0626 0.38917,1.33088 0.67157,2.78988 0.85074,4.39523 0.11423,1.02352 0.0959,3.75329 -0.0327,4.85952 -0.5492,4.72574 -2.259,8.84913 -5.21685,12.58109 -0.70218,0.88594 -2.74096,2.93466 -3.59767,3.61521 -3.72505,2.95907 -7.77964,4.68307 -12.41956,5.28078 -1.29503,0.16682 -4.54018,0.15255 -5.84335,-0.0257 -5.48783,-0.75063 -10.17327,-3.02245 -13.92869,-6.75357 -0.51162,-0.50831 -1.10596,-1.12496 -1.32076,-1.37034 l -0.39054,-0.44613 -0.88599,0.86351 c -2.26447,2.20702 -4.58707,3.84371 -7.32442,5.16139 -2.75341,1.3254 -5.61499,2.15971 -8.79483,2.56416 -0.71567,0.091 -4.28413,0.16568 -5.0384,0.10541 z m 3.51793,-2.1099 c 4.59141,-0.3068 8.82674,-1.75698 12.65562,-4.3333 0.36894,-0.24824 0.67079,-0.4723 0.67079,-0.49791 0,-0.0256 -0.12745,-0.0878 -0.28322,-0.13828 -0.19695,-0.0638 -36.71698,-10.96198 -38.01019,-11.34289 -0.0944,-0.0278 -0.0963,-0.0114 -0.0227,0.19685 0.34417,0.97392 1.20984,2.74212 1.95029,3.98362 1.68874,2.8315 4.06818,5.43569 6.74926,7.38677 4.65128,3.38483 10.62156,5.12391 16.29013,4.74514 z m 38.54821,0.002 c 7.34244,-0.49475 13.82084,-4.45297 17.60703,-10.75769 1.54361,-2.57038 2.51297,-5.40898 2.94381,-8.62036 0.13635,-1.01628 0.15409,-4.07728 0.0296,-5.09802 -0.46644,-3.8229 -1.82815,-7.36638 -3.99102,-10.38549 -3.67355,-5.12783 -9.12424,-8.34483 -15.45647,-9.12242 -1.06766,-0.13111 -3.85384,-0.14823 -4.85952,-0.0299 -2.80343,0.32997 -5.13547,1.01877 -7.54269,2.22785 -1.73154,0.8697 -3.52681,2.0812 -4.72924,3.19142 l -0.27225,0.25137 0.43895,0.85171 c 0.79985,1.55198 1.50736,3.34121 1.95466,4.94316 0.13517,0.48411 0.26851,0.86613 0.29632,0.84895 0.0278,-0.0172 0.0331,0.0381 0.0119,0.12282 -0.025,0.0998 -0.0141,0.15406 0.0309,0.15406 0.0383,0 0.0533,0.0264 0.0334,0.0586 -0.0586,0.0949 0.0346,0.48174 0.10548,0.43791 0.0402,-0.0249 0.0485,-8.2e-4 0.0229,0.066 -0.056,0.14601 0.0841,0.87279 0.1593,0.82631 0.0368,-0.0227 0.0438,0.005 0.0183,0.0714 -0.0501,0.13051 0.0853,1.07388 0.14113,0.98352 0.0215,-0.0348 0.0377,0.0786 0.0359,0.25202 -0.005,0.52805 0.10133,1.47482 0.14296,1.26931 0.0421,-0.20763 0.0612,0.5379 0.0612,2.38504 0,1.86372 -0.0174,2.58559 -0.0585,2.42084 -0.0207,-0.0832 -0.0679,0.16355 -0.1127,0.58963 -0.0424,0.40299 -0.14604,1.11133 -0.23034,1.5741 -0.0843,0.46276 -0.15578,0.93983 -0.15882,1.06013 -0.003,0.12031 -0.0222,0.20844 -0.0426,0.19585 -0.0608,-0.0376 -0.18187,0.59952 -0.13642,0.71797 0.0252,0.0657 0.0187,0.0949 -0.0163,0.0733 -0.0335,-0.0207 -0.16281,0.33829 -0.30406,0.84416 -0.85524,3.06297 -2.48471,6.35484 -4.37732,8.8431 -0.19184,0.25222 -0.3488,0.48069 -0.3488,0.50771 0,0.0707 0.94392,1.15846 1.48076,1.70643 4.44441,4.53651 10.80315,6.96492 17.12255,6.5391 z m -22.53949,-7.07322 c 4.21038,-4.04122 6.91574,-9.69281 7.48516,-15.63671 0.1142,-1.19211 0.11409,-3.53388 -2.2e-4,-4.72718 -0.10151,-1.05954 -0.321,-2.41264 -0.53946,-3.32556 l -0.15076,-0.63002 -20.55431,-6.13519 c -11.30487,-3.37436 -20.58468,-6.14591 -20.62181,-6.15901 -0.0891,-0.0314 -1.52382,1.39417 -2.20464,2.19064 -2.56557,3.00137 -4.30729,6.36146 -5.29905,10.22281 -0.85635,3.33411 -1.00079,6.93392 -0.41697,10.39198 0.14702,0.87083 0.40114,2.01558 0.46064,2.07509 0.0359,0.0359 41.06181,12.29556 41.16998,12.30271 0.0402,0.003 0.34231,-0.25365 0.67144,-0.56956 z m 5.83942,-27.24385 c -0.28653,-0.7441 -0.86623,-1.9769 -1.31651,-2.79971 -1.23955,-2.26505 -2.67199,-4.14826 -4.55927,-5.99397 -1.89259,-1.85091 -3.74905,-3.17799 -6.13407,-4.3849 -2.90298,-1.46902 -5.81983,-2.31028 -9.09296,-2.62257 -1.42225,-0.13569 -4.08595,-0.0917 -5.42597,0.0897 -3.56276,0.48218 -6.854,1.63218 -9.88176,3.45281 -0.93908,0.56468 -1.87426,1.21645 -1.81647,1.26597 0.0227,0.0195 5.91749,1.78767 13.09944,3.92928 7.18196,2.14161 15.7681,4.70573 19.08032,5.69804 3.31223,0.99231 6.06684,1.80668 6.12136,1.80972 0.0854,0.005 0.0751,-0.057 -0.0741,-0.44437 z"
             id="path14"
             transform="scale(0.26458333)" /></g><path
           style="fill:#ffffff;fill-opacity:1;stroke:none;stroke-width:0.390094;stroke-dasharray:none;stroke-opacity:1"
           d="m 247.14102,138.14811 c -2.20324,-0.59157 -3.92524,-2.07505 -5.13144,-4.42066 -0.88551,-1.72197 -1.00966,-2.30761 -0.99402,-4.689 0.0226,-3.44661 1.08334,-5.8598 3.55066,-8.07814 4.56852,-4.10749 10.33324,-3.01657 13.15721,2.48987 1.16264,2.26704 1.13389,6.23176 -0.0637,8.78508 -1.19478,2.54729 -2.71326,4.18417 -4.79543,5.16933 -2.28868,1.08287 -3.75159,1.27292 -5.72327,0.74352 z m 2.12285,-2.63961 c 0.001,-0.0464 0.90456,-3.19071 2.00715,-6.98739 1.1026,-3.79669 1.97426,-6.92105 1.93702,-6.94302 -0.0372,-0.022 -1.32713,-0.39179 -2.86643,-0.82183 -2.94735,-0.82342 -3.21394,-0.76931 -3.56504,0.72364 -0.19822,0.84289 -0.1097,0.92266 1.47429,1.32862 0.92684,0.23754 1.68459,0.59293 1.6839,0.78975 -6.9e-4,0.19682 -0.68372,2.69773 -1.51783,5.55759 -0.83411,2.85985 -1.51657,5.39109 -1.51657,5.62497 0,0.23388 0.26562,0.49465 0.59027,0.57949 0.68858,0.17994 1.76971,0.27029 1.77324,0.14818 z"
           id="path26"
           transform="scale(0.26458333)" /><path
           style="fill:#ffffff;fill-opacity:1;stroke:none;stroke-width:0.390094;stroke-dasharray:none;stroke-opacity:1"
           d="m 262.35234,116.24763 c -9.95992,-2.99532 -18.13536,-5.59782 -18.16765,-5.78333 -0.0988,-0.56797 4.39697,-2.79028 7.26104,-3.58916 2.03044,-0.56636 3.63326,-0.7578 6.41674,-0.76639 4.51185,-0.0139 6.88503,0.55759 11.28072,2.7167 2.62996,1.2918 3.69492,2.0713 6.10531,4.46881 1.79308,1.7835 3.38688,3.75004 4.13047,5.09649 1.44159,2.6103 1.75986,3.385 1.37136,3.33794 -0.15898,-0.0193 -8.43808,-2.48573 -18.39799,-5.48106 z"
           id="path27"
           transform="scale(0.26458333)" /><path
           style="fill:#ffffff;fill-opacity:1;stroke:none;stroke-width:0.390094;stroke-dasharray:none;stroke-opacity:1"
           d="m 253.90376,155.4822 c -4.89287,-0.82388 -9.63281,-3.2858 -13.27635,-6.89572 -3.11418,-3.08545 -6.9154,-9.08227 -5.38467,-8.49487 0.48014,0.18425 33.62049,10.10817 35.91638,10.7552 l 1.154,0.32523 -1.55132,0.96557 c -4.83428,3.00893 -11.26935,4.28563 -16.85804,3.34459 z"
           id="path28"
           transform="scale(0.26458333)" /><path
           style="fill:#ffffff;fill-opacity:1;stroke:none;stroke-width:0.390094;stroke-dasharray:none;stroke-opacity:1"
           d="m 303.64616,134.22483 c -5.61256,-2.85147 -6.974,-11.36793 -2.24726,-14.05773 4.57697,-2.60457 10.69836,1.70586 11.19416,7.88246 0.20079,2.50149 -0.6922,4.72536 -2.38005,5.92722 -1.5441,1.0995 -4.65934,1.21717 -6.56685,0.24805 z m 6.00986,-0.66578 c 2.26008,-1.20956 2.18426,-5.82205 -0.12557,-7.63896 -0.53416,-0.42017 -0.86024,-1.11198 -0.99393,-2.10868 -0.37715,-2.81187 -2.80577,-4.63084 -4.98031,-3.73012 -2.36675,0.98034 -2.68623,4.92423 -0.54297,6.70298 0.34283,0.28452 0.44541,0.77646 0.32133,1.54107 -0.43725,2.69442 1.79346,5.581 4.31291,5.581 0.74779,0 1.65163,-0.15628 2.00854,-0.34729 z"
           id="path29"
           transform="scale(0.26458333)" /><path
           style="fill:#ffffff;fill-opacity:1;stroke:none;stroke-width:0.0487618;stroke-dasharray:none;stroke-opacity:1"
           d="m 307.33585,131.59487 c -0.31695,-0.10957 -0.62001,-0.32032 -0.9,-0.62588 -1.01085,-1.10316 -1.03467,-2.97258 -0.045,-3.53031 0.20371,-0.1148 0.27085,-0.13055 0.5525,-0.12959 0.28582,9.8e-4 0.35626,0.0187 0.64907,0.16343 1.35568,0.67001 1.93468,2.80748 1.03735,3.82949 -0.30179,0.34371 -0.81247,0.45929 -1.29394,0.29286 z"
           id="path30"
           transform="scale(0.26458333)" /><path
           style="fill:#ffffff;fill-opacity:1;stroke:none;stroke-width:0.0487618;stroke-dasharray:none;stroke-opacity:1"
           d="m 304.92799,125.22205 c -0.89887,-0.45375 -1.35214,-1.8471 -0.8556,-2.63007 0.66685,-1.05152 2.35213,0.42934 2.11528,1.8587 -0.0948,0.57193 -0.34042,0.85862 -0.76011,0.88709 -0.20214,0.0137 -0.27795,-0.004 -0.49957,-0.11572 z"
           id="path31"
           transform="scale(0.26458333)" /><path
           style="fill:#ffffff;fill-opacity:1;stroke:none;stroke-width:0.275838;stroke-dasharray:none;stroke-opacity:1"
           d="m 262.27712,116.27179 c -10.20873,-3.05895 -18.61526,-5.61566 -18.68119,-5.68159 -0.18858,-0.18857 2.95971,-1.97863 4.84398,-2.7542 11.07621,-4.55898 23.74968,-0.61147 30.30463,9.43925 1.28418,1.96904 2.59738,4.61842 2.26978,4.57927 -0.0967,-0.0116 -8.52847,-2.52379 -18.7372,-5.58273 z"
           id="path32"
           transform="scale(0.26458333)" /><path
           style="fill:#ffffff;fill-opacity:1;stroke:none;stroke-width:0.275838;stroke-dasharray:none;stroke-opacity:1"
           d="m 247.07834,138.26076 c -2.25259,-0.63821 -4.33919,-2.52468 -5.41376,-4.89453 -0.88043,-1.94169 -1.02387,-5.10201 -0.33457,-7.37138 1.59284,-5.2441 6.43016,-8.505 10.88796,-7.33974 6.97556,1.82341 8.74799,11.40532 3.15056,17.03217 -2.30039,2.31248 -5.59815,3.33619 -8.29019,2.57348 z m 4.0283,-9.36152 c 1.08776,-3.74523 1.93773,-6.92955 1.88882,-7.07625 -0.0896,-0.26869 -4.46777,-1.61529 -5.25534,-1.61639 -0.39392,-5.5e-4 -0.58752,0.3099 -0.97993,1.57138 -0.13971,0.44912 0.0252,0.55109 1.65857,1.02569 1.31841,0.38308 1.77903,0.61738 1.68671,0.85796 -0.63538,1.65576 -3.23312,11.2077 -3.0865,11.34912 0.15328,0.14785 1.41829,0.579 1.98494,0.67651 0.0688,0.0118 1.01498,-3.04278 2.10273,-6.78802 z"
           id="path33"
           transform="scale(0.26458333)" /><path
           style="fill:#ffffff;fill-opacity:1;stroke:none;stroke-width:0.275838;stroke-dasharray:none;stroke-opacity:1"
           d="m 255.43777,155.72471 c -6.73178,-0.66636 -13.23078,-4.31112 -17.25998,-9.67973 -1.47691,-1.96786 -3.62683,-5.74717 -3.39898,-5.97502 0.16053,-0.16053 37.35424,10.97752 37.35424,11.18612 0,0.34796 -3.67252,2.32974 -5.62976,3.03795 -3.58093,1.29573 -7.41757,1.79178 -11.06552,1.43068 z"
           id="path34"
           transform="scale(0.26458333)" /><path
           style="fill:#ffffff;fill-opacity:1;stroke:none;stroke-width:0.275838;stroke-dasharray:none;stroke-opacity:1"
           d="m 247.07834,138.26076 c -2.2469,-0.6366 -4.32834,-2.51505 -5.42421,-4.89526 -0.88378,-1.91952 -1.02239,-5.07175 -0.32412,-7.37065 2.18393,-7.19013 9.91517,-9.94377 14.64339,-5.21555 2.12365,2.12365 3.14563,5.57149 2.58362,8.71631 -1.06054,5.93438 -6.58381,10.15197 -11.47868,8.76515 z m 4.05533,-9.49135 c 1.05548,-3.61889 1.91906,-6.70069 1.91906,-6.84843 0,-0.32381 -3.84483,-1.53706 -4.9797,-1.57136 -0.72415,-0.0219 -0.83773,0.0662 -1.11991,0.86859 -0.3677,1.04558 -0.33409,1.07612 1.88682,1.71392 1.12326,0.32257 1.36256,0.47665 1.23928,0.79791 -0.60014,1.56392 -3.18847,11.15788 -3.04699,11.29397 0.28154,0.27082 1.82959,0.63341 2.01453,0.47185 0.0923,-0.0806 1.03142,-3.10755 2.08691,-6.72645 z"
           id="path35"
           transform="scale(0.26458333)" /></g></g></g></svg>
