<?xml version="1.0" encoding="UTF-8" standalone="no"?>
<!-- Created with Inkscape (http://www.inkscape.org/) -->

<svg
   width="200mm"
   height="50mm"
   viewBox="0 0 200 50"
   version="1.1"
   id="svg1"
   xml:space="preserve"
   xmlns="http://www.w3.org/2000/svg"
   xmlns:svg="http://www.w3.org/2000/svg"><defs
     id="defs1"><rect
       x="202.25138"
       y="32.436543"
       width="530.43288"
       height="145.96444"
       id="rect1" /><filter
       style="color-interpolation-filters:sRGB;"
       id="filter88"
       x="-0.025169103"
       y="-0.12"
       width="1.0503382"
       height="1.24"><feFlood
         result="flood"
         in="SourceGraphic"
         flood-opacity="0.498039"
         flood-color="rgb(128,0,255)"
         id="feFlood87" /><feGaussianBlur
         result="blur"
         in="SourceGraphic"
         stdDeviation="2.000000"
         id="feGaussianBlur87" /><feOffset
         result="offset"
         in="blur"
         dx="0.000000"
         dy="0.000000"
         id="feOffset87" /><feComposite
         result="comp1"
         operator="in"
         in="flood"
         in2="offset"
         id="feComposite87" /><feComposite
         result="comp2"
         operator="over"
         in="SourceGraphic"
         in2="comp1"
         id="feComposite88" /></filter></defs><g
     id="layer1"><g
       id="g6"><g
         id="g68"><g
           id="g83"
           style="filter:url(#filter88)"><g
             id="g1"
             transform="matrix(0.32766683,0,0,0.32853874,3.9275184,4.0523496)"><path
               d="M 111.6,103.54 C 121.86,91.41 130.62,69.62 121.57,44.6 117.16,32.42 112.18,25.62 106.38,21.3 102.85,18.67 88.75,12.05 70.08,14.94 56.43,17.06 38.2,25.67 26.35,39.68 14.86,53.29 5.99,64.04 5.58,74.48 c -0.53,13.43 9.59,24.97 10.82,26.84 2.19,3.32 17.13,22.3 45.2,23.27 24.78,0.85 40.92,-10.31 50,-21.05 z"
               fill="#403d3e"
               id="path1" /><path
               d="M 28.43,13.9 C 15.5,23.13 0.97,42.01 3.58,68.49 4.85,81.38 8.02,89.2 12.57,94.81 15.34,98.23 27.36,108.4 46.19,109.9 65.17,111.41 79.6,107.16 94.67,96.68 125.3,75.37 120.79,43.15 119.48,39.4 118.17,35.65 108.36,13.57 81.39,5.72 57.59,-1.2 39.87,5.72 28.43,13.9 Z"
               fill="#5e6367"
               id="path2" /><path
               d="M 51.15,15.69 C 36.94,15.18 23.36,26.31 22.05,40.05 20.74,53.78 29.24,64.24 42.48,66.37 55.72,68.49 71.03,60.45 74.11,43.61 77.29,26.26 64.72,16.18 51.15,15.69 Z"
               fill="#ffffff"
               id="path3" /><path
               d="m 55.54,39.21 c 0,0 3.42,-0.71 4.1,-5.75 0.67,-4.96 -1.79,-9.19 -7.53,-10.71 -6.24,-1.65 -10.47,1.78 -11.57,5.39 -1.53,5.02 0.73,7.41 0.73,7.41 0,0 -6.12,1.47 -6.61,8.69 -0.46,6.81 4.19,10.47 8.86,11.59 5.77,1.39 12.31,-0.19 13.91,-7.55 1.33,-6.06 -1.89,-9.07 -1.89,-9.07 z"
               fill="#303030"
               id="path4" /><path
               d="m 45.92,30.03 c -0.55,2.07 0.55,4.07 2.71,4.62 2.33,0.59 4.45,-0.18 5.02,-2.56 0.5,-2.11 -0.5,-3.97 -2.96,-4.57 -2.02,-0.5 -4.17,0.25 -4.77,2.51 z"
               fill="#ffffff"
               id="path5" /><path
               d="m 47.68,40.32 c -2.62,-0.81 -6.08,0.2 -6.63,3.72 -0.55,3.52 1.56,5.32 4.32,5.82 2.76,0.5 5.37,-0.95 5.88,-3.77 0.5,-2.81 -0.96,-4.97 -3.57,-5.77 z"
               fill="#ffffff"
               id="path6" /></g><text
             xml:space="preserve"
             transform="matrix(0.30642635,0,0,0.30642635,-15.096605,-4.993573)"
             id="text1"
             style="text-align:start;writing-mode:lr-tb;direction:ltr;white-space:pre;shape-inside:url(#rect1);shape-padding:0;fill:#5e6367;fill-opacity:1"><tspan
               x="202.25195"
               y="81.793799"
               id="tspan2"><tspan
                 style="font-weight:bold;font-size:56.7338px;font-family:'Gill Sans';-inkscape-font-specification:'Gill Sans, Bold'"
                 id="tspan1">Torch Geometric
</tspan></tspan><tspan
               x="202.25195"
               y="152.71105"
               id="tspan4"><tspan
                 style="font-weight:bold;font-size:56.7338px;font-family:'Gill Sans';-inkscape-font-specification:'Gill Sans, Bold'"
                 id="tspan3">Pool</tspan></tspan></text></g></g></g></g></svg>
