<?xml version="1.0" encoding="UTF-8" standalone="no"?><!DOCTYPE svg PUBLIC "-//W3C//DTD SVG 1.1//EN" "http://www.w3.org/Graphics/SVG/1.1/DTD/svg11.dtd"><svg width="100%" height="100%" viewBox="0 0 200 51" version="1.1" xmlns="http://www.w3.org/2000/svg" xmlns:xlink="http://www.w3.org/1999/xlink" xml:space="preserve" xmlns:serif="http://www.serif.com/" style="fill-rule:evenodd;clip-rule:evenodd;stroke-linejoin:round;stroke-miterlimit:2;"><path d="M44.12,40.934c4.056,-4.796 7.52,-13.41 3.942,-23.302c-1.744,-4.815 -3.713,-7.503 -6.006,-9.211c-1.395,-1.04 -6.969,-3.657 -14.35,-2.515c-5.397,0.839 -12.604,4.242 -17.289,9.781c-4.542,5.381 -8.049,9.631 -8.211,13.758c-0.21,5.31 3.791,9.872 4.278,10.611c0.865,1.313 6.772,8.816 17.869,9.2c9.797,0.336 16.177,-4.076 19.767,-8.322Z" style="fill:#403d3e;fill-rule:nonzero;"/><path d="M11.24,5.495c-5.112,3.649 -10.857,11.113 -9.825,21.582c0.502,5.096 1.756,8.188 3.554,10.405c1.096,1.352 5.848,5.373 13.292,5.966c7.503,0.597 13.208,-1.083 19.166,-5.226c12.109,-8.425 10.326,-21.163 9.808,-22.646c-0.517,-1.482 -4.396,-10.211 -15.058,-13.315c-9.409,-2.735 -16.415,0 -20.937,3.234Z" style="fill:#5e6367;fill-rule:nonzero;"/><path d="M20.222,6.203c-5.618,-0.202 -10.987,4.198 -11.505,9.63c-0.518,5.428 2.843,9.564 8.077,10.406c5.234,0.838 11.287,-2.341 12.505,-8.998c1.257,-6.859 -3.712,-10.844 -9.077,-11.038Z" style="fill:#fff;fill-rule:nonzero;"/><path d="M21.957,15.501c0,0 1.352,-0.28 1.621,-2.273c0.265,-1.961 -0.707,-3.633 -2.977,-4.234c-2.467,-0.652 -4.139,0.704 -4.574,2.131c-0.605,1.985 0.289,2.929 0.289,2.929c-0,0 -2.42,0.582 -2.613,3.436c-0.182,2.692 1.656,4.139 3.502,4.582c2.281,0.549 4.867,-0.075 5.499,-2.985c0.526,-2.396 -0.747,-3.586 -0.747,-3.586Z" style="fill:#303030;fill-rule:nonzero;"/><path d="M18.154,11.872c-0.217,0.818 0.218,1.609 1.071,1.827c0.922,0.233 1.76,-0.072 1.985,-1.012c0.198,-0.835 -0.198,-1.57 -1.17,-1.807c-0.799,-0.198 -1.649,0.099 -1.886,0.992Z" style="fill:#fff;fill-rule:nonzero;"/><path d="M18.85,15.94c-1.036,-0.32 -2.404,0.079 -2.621,1.471c-0.218,1.391 0.617,2.103 1.708,2.301c1.091,0.197 2.123,-0.376 2.324,-1.491c0.198,-1.111 -0.379,-1.965 -1.411,-2.281Z" style="fill:#fff;fill-rule:nonzero;"/><g><g><path d="M68.792,28.655c1.468,0 2.705,0.503 3.709,1.546c1.005,1.043 1.507,2.28 1.507,3.787c0,1.468 -0.502,2.705 -1.507,3.748c-1.004,1.043 -2.241,1.584 -3.709,1.584c-1.507,0 -2.783,-0.541 -3.826,-1.584c-1.043,-1.043 -1.584,-2.28 -1.584,-3.748c-0,-1.507 0.502,-2.744 1.545,-3.787c1.044,-1.043 2.319,-1.546 3.865,-1.546Zm0.463,15.418c2.744,0 5.101,-1.004 7.072,-2.975c1.971,-1.971 2.937,-4.405 2.937,-7.226c-0,-2.821 -0.966,-5.217 -2.937,-7.188c-1.971,-1.932 -4.328,-2.898 -7.072,-2.898c-2.357,0 -4.289,0.58 -5.796,1.739l0,-1.545l-5.371,-0l-0,26.624l5.371,-0l0,-8.308c1.507,1.198 3.439,1.777 5.796,1.777Z" style="fill:#7a64d3;fill-opacity:0.89;fill-rule:nonzero;"/><path d="M91.359,23.593c-3.015,0 -5.526,1.005 -7.574,3.014c-2.048,2.01 -3.053,4.444 -3.053,7.342c-0,2.898 1.005,5.371 3.053,7.342c2.009,1.971 4.521,2.976 7.574,2.976c3.052,-0 5.564,-1.005 7.612,-3.015c2.048,-1.97 3.053,-4.405 3.053,-7.303c-0,-2.898 -1.005,-5.371 -3.053,-7.38c-2.048,-1.971 -4.56,-2.976 -7.612,-2.976Zm-0,4.869c1.507,-0 2.782,0.502 3.825,1.546c1.005,1.043 1.507,2.357 1.507,3.941c0,1.584 -0.541,2.898 -1.584,3.942c-1.044,1.043 -2.357,1.584 -3.864,1.584c-1.507,-0 -2.744,-0.541 -3.71,-1.584c-1.005,-1.044 -1.507,-2.358 -1.507,-3.942c-0,-1.584 0.502,-2.898 1.546,-3.941c1.004,-1.044 2.279,-1.546 3.787,-1.546Z" style="fill:#4472d5;fill-opacity:0.89;fill-rule:nonzero;"/><path d="M114.041,23.593c-3.014,0 -5.526,1.005 -7.574,3.014c-2.048,2.01 -3.052,4.444 -3.052,7.342c-0,2.898 1.004,5.371 3.052,7.342c2.01,1.971 4.522,2.976 7.574,2.976c3.053,-0 5.565,-1.005 7.613,-3.015c2.048,-1.97 3.052,-4.405 3.052,-7.303c0,-2.898 -1.004,-5.371 -3.052,-7.38c-2.048,-1.971 -4.56,-2.976 -7.613,-2.976Zm0,4.869c1.507,-0 2.782,0.502 3.826,1.546c1.005,1.043 1.507,2.357 1.507,3.941c-0,1.584 -0.541,2.898 -1.584,3.942c-1.044,1.043 -2.358,1.584 -3.865,1.584c-1.507,-0 -2.743,-0.541 -3.709,-1.584c-1.005,-1.044 -1.507,-2.358 -1.507,-3.942c-0,-1.584 0.502,-2.898 1.545,-3.941c1.005,-1.044 2.28,-1.546 3.787,-1.546Z" style="fill:#ff5000;fill-opacity:0.89;fill-rule:nonzero;"/><rect x="126.445" y="17.333" width="5.41" height="26.47" style="fill:#7a64d3;fill-opacity:0.89;fill-rule:nonzero;"/><path d="M114.041,28.462c1.507,-0 2.782,0.502 3.826,1.546c1.005,1.043 1.507,2.357 1.507,3.941c-0,1.584 -0.541,2.898 -1.584,3.942c-1.044,1.043 -2.358,1.584 -3.865,1.584c-1.507,-0 -2.743,-0.541 -3.709,-1.584c-1.005,-1.044 -1.507,-2.358 -1.507,-3.942c-0,-1.584 0.502,-2.898 1.545,-3.941c1.005,-1.044 2.28,-1.546 3.787,-1.546Z" style="fill:#fff;"/><path d="M113.988,37.338c0.744,-0 1.361,-0.232 1.834,-0.705c0.473,-0.463 0.705,-1.043 0.705,-1.747c0,-0.667 -0.212,-1.217 -0.647,-1.632c-0.434,-0.415 -0.984,-0.618 -1.65,-0.618c-0.396,0 -0.763,0.106 -1.101,0.309l0.203,-1.023l2.626,-0l-0,-1.323l-3.611,0l-0.666,3.611l1.158,0.357c0.087,-0.193 0.232,-0.367 0.425,-0.521c0.184,-0.145 0.425,-0.222 0.724,-0.222c0.338,-0 0.618,0.096 0.83,0.299c0.213,0.203 0.319,0.463 0.319,0.801c0,0.338 -0.106,0.618 -0.319,0.821c-0.222,0.203 -0.492,0.309 -0.83,0.309c-0.54,-0 -0.956,-0.29 -1.255,-0.859l-1.178,0.695c0.493,0.965 1.304,1.448 2.433,1.448Z" style="fill:#303030;fill-opacity:0.89;fill-rule:nonzero;"/><path d="M91.359,28.462c1.507,-0 2.782,0.502 3.825,1.546c1.005,1.043 1.507,2.357 1.507,3.941c0,1.584 -0.541,2.898 -1.584,3.942c-1.044,1.043 -2.357,1.584 -3.864,1.584c-1.507,-0 -2.744,-0.541 -3.71,-1.584c-1.005,-1.044 -1.507,-2.358 -1.507,-3.942c-0,-1.584 0.502,-2.898 1.546,-3.941c1.004,-1.044 2.279,-1.546 3.787,-1.546Z" style="fill:#fff;"/><path d="M93.811,37.323l-0,-1.226l-2.665,0l1.139,-0.869c0.541,-0.415 0.927,-0.811 1.168,-1.177c0.232,-0.367 0.348,-0.802 0.348,-1.313c-0,-0.609 -0.212,-1.12 -0.647,-1.526c-0.434,-0.396 -1.004,-0.598 -1.728,-0.598c-1.091,-0 -1.931,0.482 -2.52,1.448l1.149,0.695c0.164,-0.27 0.357,-0.483 0.57,-0.628c0.203,-0.144 0.463,-0.212 0.782,-0.212c0.299,-0 0.54,0.077 0.724,0.241c0.183,0.164 0.27,0.377 0.27,0.657c0,0.289 -0.067,0.531 -0.212,0.724c-0.145,0.193 -0.377,0.415 -0.705,0.666l-2.365,1.892l-0,1.226l4.692,0Z" style="fill:#303030;fill-opacity:0.89;fill-rule:nonzero;"/></g><g><path d="M61.821,5.741l-0,-2.64l-2.78,0l-0,2.64l-1.48,0l-0,2.48l1.48,0l-0,4.26c-0,2.34 1.32,3.52 3.94,3.52l1.36,0l-0,-2.38l-1.16,0c-0.48,0 -0.82,-0.1 -1.04,-0.3c-0.22,-0.2 -0.32,-0.52 -0.32,-0.98l-0,-4.12l2.52,0l-0,-2.48l-2.52,0Z" style="fill:#7a64d3;fill-opacity:0.89;fill-rule:nonzero;"/><path d="M70.001,5.541c-1.56,0 -2.86,0.52 -3.92,1.56c-1.06,1.04 -1.58,2.3 -1.58,3.8c-0,1.5 0.52,2.78 1.58,3.8c1.04,1.02 2.34,1.54 3.92,1.54c1.58,0 2.88,-0.52 3.94,-1.56c1.06,-1.02 1.58,-2.28 1.58,-3.78c-0,-1.5 -0.52,-2.78 -1.58,-3.82c-1.06,-1.02 -2.36,-1.54 -3.94,-1.54Zm-0,2.52c0.78,0 1.44,0.26 1.98,0.8c0.52,0.54 0.78,1.22 0.78,2.04c-0,0.82 -0.28,1.5 -0.82,2.04c-0.54,0.54 -1.22,0.82 -2,0.82c-0.78,0 -1.42,-0.28 -1.92,-0.82c-0.52,-0.54 -0.78,-1.22 -0.78,-2.04c-0,-0.82 0.26,-1.5 0.8,-2.04c0.52,-0.54 1.18,-0.8 1.96,-0.8Z" style="fill:#7a64d3;fill-opacity:0.89;fill-rule:nonzero;"/><path d="M79.221,16.001l-0,-4.68c-0,-0.92 0.24,-1.64 0.74,-2.16c0.5,-0.5 1.24,-0.76 2.22,-0.76l-0,-2.8c-1.24,0 -2.24,0.52 -2.98,1.54l-0,-1.4l-2.78,0l-0,10.26l2.8,0Z" style="fill:#7a64d3;fill-opacity:0.89;fill-rule:nonzero;"/><path d="M90.341,12.241c-0.6,1 -1.44,1.5 -2.52,1.5c-0.82,0 -1.46,-0.26 -1.96,-0.8c-0.5,-0.52 -0.76,-1.2 -0.76,-2.04c-0,-0.84 0.26,-1.52 0.76,-2.04c0.5,-0.52 1.14,-0.78 1.96,-0.78c1.08,0 1.92,0.5 2.52,1.5l2.18,-1.36c-1.06,-1.78 -2.66,-2.68 -4.8,-2.68c-1.58,0 -2.86,0.52 -3.88,1.54c-1.02,1.04 -1.54,2.32 -1.54,3.82c-0,1.5 0.52,2.78 1.54,3.8c1.02,1.02 2.3,1.54 3.88,1.54c2.1,0 3.7,-0.88 4.78,-2.62l-2.16,-1.38Z" style="fill:#7a64d3;fill-opacity:0.89;fill-rule:nonzero;"/><path d="M96.121,2.301l-2.78,0l-0,13.7l2.78,0l-0,-5.6c-0,-0.7 0.2,-1.26 0.62,-1.68c0.42,-0.4 0.96,-0.6 1.64,-0.6c0.58,0 1.04,0.18 1.38,0.56c0.34,0.38 0.5,0.88 0.5,1.5l-0,5.82l2.76,0l-0,-6.3c-0,-1.24 -0.36,-2.24 -1.08,-3c-0.72,-0.76 -1.68,-1.14 -2.88,-1.14c-0.66,0 -1.24,0.12 -1.78,0.38c-0.54,0.26 -0.92,0.54 -1.16,0.84l-0,-4.48Z" style="fill:#7a64d3;fill-opacity:0.89;fill-rule:nonzero;"/></g><g><path d="M113.241,8.081c0.78,0 1.42,0.26 1.96,0.78c0.54,0.54 0.8,1.18 0.8,1.92c-0,0.76 -0.26,1.4 -0.78,1.92c-0.54,0.52 -1.2,0.78 -1.98,0.78c-0.74,0 -1.36,-0.26 -1.86,-0.78c-0.52,-0.52 -0.78,-1.16 -0.78,-1.92c-0,-0.74 0.26,-1.38 0.78,-1.92c0.5,-0.52 1.12,-0.78 1.86,-0.78Zm-0.02,11.68c1.72,0 3.06,-0.46 4.04,-1.36c0.98,-0.9 1.46,-2.02 1.46,-3.4l-0,-9.26l-2.76,0l-0,0.76c-0.78,-0.62 -1.76,-0.92 -2.96,-0.92c-1.38,0 -2.58,0.5 -3.58,1.5c-1.02,1.02 -1.52,2.24 -1.52,3.68c-0,1.44 0.5,2.66 1.52,3.64c1,1 2.2,1.5 3.58,1.5c1.22,0 2.22,-0.32 2.96,-0.94l-0,0.28c-0,0.72 -0.24,1.26 -0.72,1.62c-0.5,0.38 -1.18,0.56 -2.06,0.56c-1.26,0 -2.24,-0.48 -2.92,-1.42l-2,1.36c1.12,1.6 2.78,2.4 4.96,2.4Z" style="fill:#7a64d3;fill-opacity:0.89;fill-rule:nonzero;"/><path d="M129.901,13.801l-2.08,-1.28c-0.64,0.9 -1.54,1.36 -2.72,1.36c-0.7,0 -1.3,-0.2 -1.78,-0.58c-0.48,-0.38 -0.8,-0.9 -0.94,-1.56l7.84,0c-0,-0.02 -0,-0.08 0.02,-0.18c-0,-0.1 -0,-0.24 0.02,-0.4l-0,-0.4c-0,-1.52 -0.46,-2.78 -1.4,-3.76c-0.94,-0.98 -2.22,-1.46 -3.8,-1.46c-1.58,0 -2.88,0.52 -3.9,1.54c-1.02,1.04 -1.52,2.32 -1.52,3.82c-0,1.54 0.5,2.82 1.5,3.82c0.98,1.02 2.28,1.52 3.9,1.52c2.16,0 3.78,-0.82 4.86,-2.44Zm-4.86,-5.98c0.58,0 1.1,0.16 1.54,0.48c0.44,0.32 0.74,0.78 0.88,1.38l-4.98,0c0.38,-1.24 1.24,-1.86 2.56,-1.86Z" style="fill:#7a64d3;fill-opacity:0.89;fill-rule:nonzero;"/><path d="M136.541,5.541c-1.56,0 -2.86,0.52 -3.92,1.56c-1.06,1.04 -1.58,2.3 -1.58,3.8c-0,1.5 0.52,2.78 1.58,3.8c1.04,1.02 2.34,1.54 3.92,1.54c1.58,0 2.88,-0.52 3.94,-1.56c1.06,-1.02 1.58,-2.28 1.58,-3.78c-0,-1.5 -0.52,-2.78 -1.58,-3.82c-1.06,-1.02 -2.36,-1.54 -3.94,-1.54Zm-0,2.52c0.78,0 1.44,0.26 1.98,0.8c0.52,0.54 0.78,1.22 0.78,2.04c-0,0.82 -0.28,1.5 -0.82,2.04c-0.54,0.54 -1.22,0.82 -2,0.82c-0.78,0 -1.42,-0.28 -1.92,-0.82c-0.52,-0.54 -0.78,-1.22 -0.78,-2.04c-0,-0.82 0.26,-1.5 0.8,-2.04c0.52,-0.54 1.18,-0.8 1.96,-0.8Z" style="fill:#7a64d3;fill-opacity:0.89;fill-rule:nonzero;"/><path d="M145.701,5.741l-2.74,0l-0,10.26l2.78,0l-0,-5.66c-0,-0.68 0.2,-1.22 0.58,-1.62c0.38,-0.4 0.88,-0.6 1.5,-0.6c0.54,0 0.96,0.18 1.26,0.54c0.3,0.36 0.46,0.84 0.46,1.44l-0,5.9l2.74,0l-0,-5.66c-0,-0.68 0.2,-1.22 0.58,-1.62c0.38,-0.4 0.88,-0.6 1.5,-0.6c0.54,0 0.96,0.18 1.26,0.54c0.3,0.36 0.46,0.84 0.46,1.44l-0,5.9l2.76,0l-0,-6.36c-0,-1.22 -0.36,-2.22 -1.06,-2.96c-0.72,-0.74 -1.7,-1.12 -2.94,-1.12c-1.34,0 -2.46,0.46 -3.36,1.4c-0.7,-0.94 -1.68,-1.4 -2.94,-1.4c-1.12,0 -2.06,0.4 -2.84,1.2l-0,-1.02Z" style="fill:#7a64d3;fill-opacity:0.89;fill-rule:nonzero;"/><path d="M170.041,13.801l-2.08,-1.28c-0.64,0.9 -1.54,1.36 -2.72,1.36c-0.7,0 -1.3,-0.2 -1.78,-0.58c-0.48,-0.38 -0.8,-0.9 -0.94,-1.56l7.84,0c-0,-0.02 -0,-0.08 0.02,-0.18c-0,-0.1 -0,-0.24 0.02,-0.4l-0,-0.4c-0,-1.52 -0.46,-2.78 -1.4,-3.76c-0.94,-0.98 -2.22,-1.46 -3.8,-1.46c-1.58,0 -2.88,0.52 -3.9,1.54c-1.02,1.04 -1.52,2.32 -1.52,3.82c-0,1.54 0.5,2.82 1.5,3.82c0.98,1.02 2.28,1.52 3.9,1.52c2.16,0 3.78,-0.82 4.86,-2.44Zm-4.86,-5.98c0.58,0 1.1,0.16 1.54,0.48c0.44,0.32 0.74,0.78 0.88,1.38l-4.98,0c0.38,-1.24 1.24,-1.86 2.56,-1.86Z" style="fill:#7a64d3;fill-opacity:0.89;fill-rule:nonzero;"/><path d="M174.921,5.741l-0,-2.64l-2.78,0l-0,2.64l-1.48,0l-0,2.48l1.48,0l-0,4.26c-0,2.34 1.32,3.52 3.94,3.52l1.36,0l-0,-2.38l-1.16,0c-0.48,0 -0.82,-0.1 -1.04,-0.3c-0.22,-0.2 -0.32,-0.52 -0.32,-0.98l-0,-4.12l2.52,0l-0,-2.48l-2.52,0Z" style="fill:#7a64d3;fill-opacity:0.89;fill-rule:nonzero;"/><path d="M181.281,16.001l-0,-4.68c-0,-0.92 0.24,-1.64 0.74,-2.16c0.5,-0.5 1.24,-0.76 2.22,-0.76l-0,-2.8c-1.24,0 -2.24,0.52 -2.98,1.54l-0,-1.4l-2.78,0l-0,10.26l2.8,0Z" style="fill:#7a64d3;fill-opacity:0.89;fill-rule:nonzero;"/><path d="M188.021,4.861l-0,-2.56l-2.78,0l-0,2.56l2.78,0Zm-0,11.14l-0,-10.26l-2.78,0l-0,10.26l2.78,0Z" style="fill:#7a64d3;fill-opacity:0.89;fill-rule:nonzero;"/><path d="M197.001,12.241c-0.6,1 -1.44,1.5 -2.52,1.5c-0.82,0 -1.46,-0.26 -1.96,-0.8c-0.5,-0.52 -0.76,-1.2 -0.76,-2.04c-0,-0.84 0.26,-1.52 0.76,-2.04c0.5,-0.52 1.14,-0.78 1.96,-0.78c1.08,0 1.92,0.5 2.52,1.5l2.18,-1.36c-1.06,-1.78 -2.66,-2.68 -4.8,-2.68c-1.58,0 -2.86,0.52 -3.88,1.54c-1.02,1.04 -1.54,2.32 -1.54,3.82c-0,1.5 0.52,2.78 1.54,3.8c1.02,1.02 2.3,1.54 3.88,1.54c2.1,0 3.7,-0.88 4.78,-2.62l-2.16,-1.38Z" style="fill:#7a64d3;fill-opacity:0.89;fill-rule:nonzero;"/></g></g></svg>