<?xml version="1.0" encoding="UTF-8" standalone="no"?><!DOCTYPE svg PUBLIC "-//W3C//DTD SVG 1.1//EN" "http://www.w3.org/Graphics/SVG/1.1/DTD/svg11.dtd"><svg width="100%" height="100%" viewBox="0 0 220 54" version="1.1" xmlns="http://www.w3.org/2000/svg" xmlns:xlink="http://www.w3.org/1999/xlink" xml:space="preserve" xmlns:serif="http://www.serif.com/" style="fill-rule:evenodd;clip-rule:evenodd;stroke-linejoin:round;stroke-miterlimit:2;"><path d="M44.764,41.531c4.115,-4.866 7.629,-13.606 3.999,-23.642c-1.769,-4.885 -3.767,-7.613 -6.093,-9.345c-1.416,-1.055 -7.072,-3.711 -14.56,-2.551c-5.475,0.85 -12.788,4.303 -17.541,9.923c-4.609,5.459 -8.166,9.771 -8.331,13.959c-0.212,5.387 3.847,10.015 4.34,10.765c0.879,1.332 6.871,8.945 18.13,9.334c9.94,0.341 16.414,-4.135 20.056,-8.443Z" style="fill:#403d3e;fill-rule:nonzero;"/><path d="M11.404,5.575c-5.187,3.703 -11.015,11.276 -9.968,21.897c0.509,5.17 1.781,8.307 3.606,10.557c1.111,1.372 5.932,5.451 13.485,6.053c7.613,0.606 13.401,-1.099 19.446,-5.303c12.286,-8.547 10.477,-21.471 9.952,-22.975c-0.526,-1.504 -4.461,-10.361 -15.279,-13.51c-9.546,-2.775 -16.654,0 -21.242,3.281Z" style="fill:#5e6367;fill-rule:nonzero;"/><path d="M20.517,6.293c-5.7,-0.204 -11.147,4.26 -11.673,9.771c-0.525,5.508 2.884,9.703 8.195,10.558c5.311,0.85 11.452,-2.375 12.687,-9.13c1.276,-6.959 -3.766,-11.002 -9.209,-11.199Z" style="fill:#fff;fill-rule:nonzero;"/><path d="M22.278,15.727c-0,0 1.371,-0.284 1.644,-2.306c0.269,-1.989 -0.718,-3.686 -3.02,-4.296c-2.503,-0.662 -4.2,0.714 -4.641,2.162c-0.614,2.014 0.293,2.972 0.293,2.972c-0,0 -2.455,0.59 -2.652,3.486c-0.184,2.732 1.681,4.2 3.554,4.649c2.315,0.557 4.938,-0.076 5.58,-3.028c0.533,-2.431 -0.758,-3.639 -0.758,-3.639Z" style="fill:#303030;fill-rule:nonzero;"/><path d="M18.419,12.045c-0.221,0.831 0.221,1.633 1.087,1.853c0.935,0.237 1.785,-0.072 2.014,-1.026c0.2,-0.847 -0.201,-1.593 -1.188,-1.833c-0.81,-0.201 -1.672,0.1 -1.913,1.006Z" style="fill:#fff;fill-rule:nonzero;"/><path d="M19.125,16.173c-1.051,-0.325 -2.439,0.08 -2.659,1.492c-0.221,1.412 0.625,2.134 1.732,2.334c1.107,0.201 2.154,-0.381 2.359,-1.512c0.2,-1.127 -0.385,-1.993 -1.432,-2.314Z" style="fill:#fff;fill-rule:nonzero;"/><g><path d="M71.631,14.635l0,-7.397l-7.789,-0l-0,7.397l-4.147,-0l0,6.948l4.147,0l-0,11.936c-0,6.557 3.698,9.863 11.039,9.863l3.811,-0l-0,-6.669l-3.25,0c-1.345,0 -2.298,-0.28 -2.914,-0.84c-0.617,-0.56 -0.897,-1.457 -0.897,-2.746l0,-11.544l7.061,0l-0,-6.948l-7.061,-0Z" style="fill:#7a64d3;fill-opacity:0.89;fill-rule:nonzero;"/><path d="M94.102,21.191c2.186,0 3.979,0.729 5.492,2.186c1.513,1.513 2.241,3.306 2.241,5.379c0,2.13 -0.728,3.923 -2.185,5.38c-1.513,1.457 -3.362,2.185 -5.548,2.185c-2.073,0 -3.81,-0.728 -5.211,-2.185c-1.457,-1.457 -2.186,-3.25 -2.186,-5.38c0,-2.073 0.729,-3.866 2.186,-5.379c1.401,-1.457 3.138,-2.186 5.211,-2.186Zm-0.056,32.726c4.819,0 8.574,-1.289 11.32,-3.811c2.746,-2.521 4.091,-5.659 4.091,-9.526l-0,-25.945l-7.734,-0l0,2.129c-2.185,-1.737 -4.931,-2.578 -8.293,-2.578c-3.867,0 -7.229,1.401 -10.031,4.203c-2.858,2.858 -4.259,6.276 -4.259,10.311c0,4.035 1.401,7.453 4.259,10.199c2.802,2.802 6.164,4.203 10.031,4.203c3.418,-0 6.22,-0.897 8.293,-2.634l0,0.785c0,2.017 -0.672,3.53 -2.017,4.539c-1.401,1.064 -3.306,1.569 -5.772,1.569c-3.53,-0 -6.276,-1.345 -8.181,-3.979l-5.604,3.811c3.138,4.483 7.789,6.724 13.897,6.724Z" style="fill:#7a64d3;fill-opacity:0.89;fill-rule:nonzero;"/><g><path d="M128.061,21.415c2.129,0 3.923,0.729 5.38,2.242c1.457,1.513 2.185,3.306 2.185,5.491c0,2.13 -0.728,3.923 -2.185,5.436c-1.457,1.513 -3.251,2.298 -5.38,2.298c-2.185,-0 -4.035,-0.785 -5.548,-2.298c-1.513,-1.513 -2.297,-3.306 -2.297,-5.436c-0,-2.185 0.728,-3.978 2.241,-5.491c1.513,-1.513 3.363,-2.242 5.604,-2.242Zm0.672,22.359c3.979,0 7.397,-1.457 10.255,-4.315c2.858,-2.858 4.259,-6.388 4.259,-10.479c0,-4.09 -1.401,-7.565 -4.259,-10.423c-2.858,-2.802 -6.276,-4.203 -10.255,-4.203c-3.418,0 -6.22,0.841 -8.405,2.522l-0,-2.241l-7.789,-0l-0,38.61l7.789,-0l-0,-12.049c2.185,1.738 4.987,2.578 8.405,2.578Z" style="fill:#7a64d3;fill-opacity:0.89;fill-rule:nonzero;"/><path d="M160.787,14.074c-4.371,0 -8.013,1.457 -10.983,4.371c-2.97,2.914 -4.427,6.445 -4.427,10.647c-0,4.203 1.457,7.79 4.427,10.648c2.914,2.857 6.556,4.314 10.983,4.314c4.427,0 8.069,-1.457 11.039,-4.371c2.97,-2.857 4.427,-6.388 4.427,-10.591c0,-4.202 -1.457,-7.789 -4.427,-10.703c-2.97,-2.858 -6.612,-4.315 -11.039,-4.315Zm0,7.061c2.185,0 4.035,0.729 5.548,2.242c1.457,1.513 2.185,3.418 2.185,5.715c0,2.298 -0.784,4.203 -2.297,5.716c-1.513,1.513 -3.419,2.298 -5.604,2.298c-2.186,-0 -3.979,-0.785 -5.38,-2.298c-1.457,-1.513 -2.185,-3.418 -2.185,-5.716c-0,-2.297 0.728,-4.202 2.241,-5.715c1.457,-1.513 3.307,-2.242 5.492,-2.242Z" style="fill:#4472d5;fill-opacity:0.89;fill-rule:nonzero;"/><path d="M193.681,14.074c-4.371,0 -8.013,1.457 -10.983,4.371c-2.97,2.914 -4.427,6.445 -4.427,10.647c-0,4.203 1.457,7.79 4.427,10.648c2.914,2.857 6.556,4.314 10.983,4.314c4.427,0 8.07,-1.457 11.04,-4.371c2.97,-2.857 4.426,-6.388 4.426,-10.591c0,-4.202 -1.456,-7.789 -4.426,-10.703c-2.97,-2.858 -6.613,-4.315 -11.04,-4.315Zm0,7.061c2.186,0 4.035,0.729 5.548,2.242c1.457,1.513 2.185,3.418 2.185,5.715c0,2.298 -0.784,4.203 -2.297,5.716c-1.513,1.513 -3.419,2.298 -5.604,2.298c-2.185,-0 -3.979,-0.785 -5.38,-2.298c-1.457,-1.513 -2.185,-3.418 -2.185,-5.716c-0,-2.297 0.728,-4.202 2.241,-5.715c1.457,-1.513 3.307,-2.242 5.492,-2.242Z" style="fill:#ff5000;fill-opacity:0.89;fill-rule:nonzero;"/><rect x="211.669" y="4.996" width="7.845" height="38.386" style="fill:#7a64d3;fill-opacity:0.89;fill-rule:nonzero;"/><path d="M193.681,21.135c2.186,0 4.035,0.729 5.548,2.242c1.457,1.513 2.185,3.418 2.185,5.715c0,2.298 -0.784,4.203 -2.297,5.716c-1.513,1.513 -3.419,2.298 -5.604,2.298c-2.185,-0 -3.979,-0.785 -5.38,-2.298c-1.457,-1.513 -2.185,-3.418 -2.185,-5.716c-0,-2.297 0.728,-4.202 2.241,-5.715c1.457,-1.513 3.307,-2.242 5.492,-2.242Z" style="fill:#fff;"/><path d="M193.604,34.006c1.078,0 1.974,-0.336 2.66,-1.022c0.686,-0.672 1.022,-1.512 1.022,-2.534c0,-0.966 -0.308,-1.764 -0.938,-2.366c-0.63,-0.602 -1.428,-0.896 -2.394,-0.896c-0.574,0 -1.106,0.154 -1.596,0.448l0.294,-1.484l3.808,0l0,-1.918l-5.236,0l-0.966,5.236l1.68,0.518c0.126,-0.28 0.336,-0.532 0.616,-0.756c0.266,-0.21 0.616,-0.322 1.05,-0.322c0.49,0 0.896,0.14 1.204,0.434c0.308,0.294 0.462,0.672 0.462,1.162c0,0.49 -0.154,0.896 -0.462,1.19c-0.322,0.294 -0.714,0.448 -1.204,0.448c-0.784,0 -1.386,-0.42 -1.82,-1.246l-1.708,1.008c0.714,1.4 1.89,2.1 3.528,2.1Z" style="fill:#303030;fill-opacity:0.89;fill-rule:nonzero;"/><path d="M160.787,21.135c2.185,0 4.035,0.729 5.548,2.242c1.457,1.513 2.185,3.418 2.185,5.715c0,2.298 -0.784,4.203 -2.297,5.716c-1.513,1.513 -3.419,2.298 -5.604,2.298c-2.186,-0 -3.979,-0.785 -5.38,-2.298c-1.457,-1.513 -2.185,-3.418 -2.185,-5.716c-0,-2.297 0.728,-4.202 2.241,-5.715c1.457,-1.513 3.307,-2.242 5.492,-2.242Z" style="fill:#fff;"/><path d="M164.343,33.985l0,-1.778l-3.864,0l1.652,-1.26c0.784,-0.602 1.344,-1.176 1.694,-1.708c0.336,-0.532 0.504,-1.162 0.504,-1.904c0,-0.882 -0.308,-1.624 -0.938,-2.212c-0.63,-0.574 -1.456,-0.868 -2.506,-0.868c-1.582,0 -2.8,0.7 -3.654,2.1l1.666,1.008c0.238,-0.392 0.518,-0.7 0.826,-0.91c0.294,-0.21 0.672,-0.308 1.134,-0.308c0.434,0 0.784,0.112 1.05,0.35c0.266,0.238 0.392,0.546 0.392,0.952c0,0.42 -0.098,0.77 -0.308,1.05c-0.21,0.28 -0.546,0.602 -1.022,0.966l-3.43,2.744l0,1.778l6.804,0Z" style="fill:#303030;fill-opacity:0.89;fill-rule:nonzero;"/></g></g></svg>