<?xml version="1.0" encoding="UTF-8" standalone="no"?><!DOCTYPE svg PUBLIC "-//W3C//DTD SVG 1.1//EN" "http://www.w3.org/Graphics/SVG/1.1/DTD/svg11.dtd"><svg width="100%" height="100%" viewBox="0 0 132 51" version="1.1" xmlns="http://www.w3.org/2000/svg" xmlns:xlink="http://www.w3.org/1999/xlink" xml:space="preserve" xmlns:serif="http://www.serif.com/" style="fill-rule:evenodd;clip-rule:evenodd;stroke-linejoin:round;stroke-miterlimit:2;"><path d="M44.12,40.934c4.056,-4.796 7.52,-13.41 3.942,-23.302c-1.744,-4.815 -3.713,-7.503 -6.006,-9.211c-1.395,-1.04 -6.969,-3.657 -14.35,-2.515c-5.397,0.839 -12.604,4.242 -17.289,9.781c-4.542,5.381 -8.049,9.631 -8.211,13.758c-0.21,5.31 3.791,9.872 4.278,10.611c0.865,1.313 6.772,8.816 17.869,9.2c9.797,0.336 16.177,-4.076 19.767,-8.322Z" style="fill:#403d3e;fill-rule:nonzero;"/><path d="M11.24,5.495c-5.112,3.649 -10.857,11.113 -9.825,21.582c0.502,5.096 1.756,8.188 3.554,10.405c1.096,1.352 5.848,5.373 13.292,5.966c7.503,0.597 13.208,-1.083 19.166,-5.226c12.109,-8.425 10.326,-21.163 9.808,-22.646c-0.517,-1.482 -4.396,-10.211 -15.058,-13.315c-9.409,-2.735 -16.415,0 -20.937,3.234Z" style="fill:#5e6367;fill-rule:nonzero;"/><path d="M20.222,6.203c-5.618,-0.202 -10.987,4.198 -11.505,9.63c-0.518,5.428 2.843,9.564 8.077,10.406c5.234,0.838 11.287,-2.341 12.505,-8.998c1.257,-6.859 -3.712,-10.844 -9.077,-11.038Z" style="fill:#fff;fill-rule:nonzero;"/><path d="M21.957,15.501c0,0 1.352,-0.28 1.621,-2.273c0.265,-1.961 -0.707,-3.633 -2.977,-4.234c-2.467,-0.652 -4.139,0.704 -4.574,2.131c-0.605,1.985 0.289,2.929 0.289,2.929c-0,0 -2.42,0.582 -2.613,3.436c-0.182,2.692 1.656,4.139 3.502,4.582c2.281,0.549 4.867,-0.075 5.499,-2.985c0.526,-2.396 -0.747,-3.586 -0.747,-3.586Z" style="fill:#303030;fill-rule:nonzero;"/><path d="M18.154,11.872c-0.217,0.818 0.218,1.609 1.071,1.827c0.922,0.233 1.76,-0.072 1.985,-1.012c0.198,-0.835 -0.198,-1.57 -1.17,-1.807c-0.799,-0.198 -1.649,0.099 -1.886,0.992Z" style="fill:#fff;fill-rule:nonzero;"/><path d="M18.85,15.94c-1.036,-0.32 -2.404,0.079 -2.621,1.471c-0.218,1.391 0.617,2.103 1.708,2.301c1.091,0.197 2.123,-0.376 2.324,-1.491c0.198,-1.111 -0.379,-1.965 -1.411,-2.281Z" style="fill:#fff;fill-rule:nonzero;"/><g><g><path d="M68.792,28.655c1.468,0 2.705,0.503 3.709,1.546c1.005,1.043 1.507,2.28 1.507,3.787c0,1.468 -0.502,2.705 -1.507,3.748c-1.004,1.043 -2.241,1.584 -3.709,1.584c-1.507,0 -2.783,-0.541 -3.826,-1.584c-1.043,-1.043 -1.584,-2.28 -1.584,-3.748c-0,-1.507 0.502,-2.744 1.545,-3.787c1.044,-1.043 2.319,-1.546 3.865,-1.546Zm0.463,15.418c2.744,0 5.101,-1.004 7.072,-2.975c1.971,-1.971 2.937,-4.405 2.937,-7.226c-0,-2.821 -0.966,-5.217 -2.937,-7.188c-1.971,-1.932 -4.328,-2.898 -7.072,-2.898c-2.357,0 -4.289,0.58 -5.796,1.739l0,-1.545l-5.371,-0l-0,26.624l5.371,-0l0,-8.308c1.507,1.198 3.439,1.777 5.796,1.777Z" style="fill:#7a64d3;fill-opacity:0.89;fill-rule:nonzero;"/><path d="M91.359,23.593c-3.015,0 -5.526,1.005 -7.574,3.014c-2.048,2.01 -3.053,4.444 -3.053,7.342c-0,2.898 1.005,5.371 3.053,7.342c2.009,1.971 4.521,2.976 7.574,2.976c3.052,-0 5.564,-1.005 7.612,-3.015c2.048,-1.97 3.053,-4.405 3.053,-7.303c-0,-2.898 -1.005,-5.371 -3.053,-7.38c-2.048,-1.971 -4.56,-2.976 -7.612,-2.976Zm-0,4.869c1.507,-0 2.782,0.502 3.825,1.546c1.005,1.043 1.507,2.357 1.507,3.941c0,1.584 -0.541,2.898 -1.584,3.942c-1.044,1.043 -2.357,1.584 -3.864,1.584c-1.507,-0 -2.744,-0.541 -3.71,-1.584c-1.005,-1.044 -1.507,-2.358 -1.507,-3.942c-0,-1.584 0.502,-2.898 1.546,-3.941c1.004,-1.044 2.279,-1.546 3.787,-1.546Z" style="fill:#4472d5;fill-opacity:0.89;fill-rule:nonzero;"/><path d="M114.041,23.593c-3.014,0 -5.526,1.005 -7.574,3.014c-2.048,2.01 -3.052,4.444 -3.052,7.342c-0,2.898 1.004,5.371 3.052,7.342c2.01,1.971 4.522,2.976 7.574,2.976c3.053,-0 5.565,-1.005 7.613,-3.015c2.048,-1.97 3.052,-4.405 3.052,-7.303c0,-2.898 -1.004,-5.371 -3.052,-7.38c-2.048,-1.971 -4.56,-2.976 -7.613,-2.976Zm0,4.869c1.507,-0 2.782,0.502 3.826,1.546c1.005,1.043 1.507,2.357 1.507,3.941c-0,1.584 -0.541,2.898 -1.584,3.942c-1.044,1.043 -2.358,1.584 -3.865,1.584c-1.507,-0 -2.743,-0.541 -3.709,-1.584c-1.005,-1.044 -1.507,-2.358 -1.507,-3.942c-0,-1.584 0.502,-2.898 1.545,-3.941c1.005,-1.044 2.28,-1.546 3.787,-1.546Z" style="fill:#ff5000;fill-opacity:0.89;fill-rule:nonzero;"/><rect x="126.445" y="17.333" width="5.41" height="26.47" style="fill:#7a64d3;fill-opacity:0.89;fill-rule:nonzero;"/><path d="M114.041,28.462c1.507,-0 2.782,0.502 3.826,1.546c1.005,1.043 1.507,2.357 1.507,3.941c-0,1.584 -0.541,2.898 -1.584,3.942c-1.044,1.043 -2.358,1.584 -3.865,1.584c-1.507,-0 -2.743,-0.541 -3.709,-1.584c-1.005,-1.044 -1.507,-2.358 -1.507,-3.942c-0,-1.584 0.502,-2.898 1.545,-3.941c1.005,-1.044 2.28,-1.546 3.787,-1.546Z" style="fill:#fff;"/><path d="M113.988,37.338c0.744,-0 1.361,-0.232 1.834,-0.705c0.473,-0.463 0.705,-1.043 0.705,-1.747c0,-0.667 -0.212,-1.217 -0.647,-1.632c-0.434,-0.415 -0.984,-0.618 -1.65,-0.618c-0.396,0 -0.763,0.106 -1.101,0.309l0.203,-1.023l2.626,-0l-0,-1.323l-3.611,0l-0.666,3.611l1.158,0.357c0.087,-0.193 0.232,-0.367 0.425,-0.521c0.184,-0.145 0.425,-0.222 0.724,-0.222c0.338,-0 0.618,0.096 0.83,0.299c0.213,0.203 0.319,0.463 0.319,0.801c0,0.338 -0.106,0.618 -0.319,0.821c-0.222,0.203 -0.492,0.309 -0.83,0.309c-0.54,-0 -0.956,-0.29 -1.255,-0.859l-1.178,0.695c0.493,0.965 1.304,1.448 2.433,1.448Z" style="fill:#303030;fill-opacity:0.89;fill-rule:nonzero;"/><path d="M91.359,28.462c1.507,-0 2.782,0.502 3.825,1.546c1.005,1.043 1.507,2.357 1.507,3.941c0,1.584 -0.541,2.898 -1.584,3.942c-1.044,1.043 -2.357,1.584 -3.864,1.584c-1.507,-0 -2.744,-0.541 -3.71,-1.584c-1.005,-1.044 -1.507,-2.358 -1.507,-3.942c-0,-1.584 0.502,-2.898 1.546,-3.941c1.004,-1.044 2.279,-1.546 3.787,-1.546Z" style="fill:#fff;"/><path d="M93.811,37.323l-0,-1.226l-2.665,0l1.139,-0.869c0.541,-0.415 0.927,-0.811 1.168,-1.177c0.232,-0.367 0.348,-0.802 0.348,-1.313c-0,-0.609 -0.212,-1.12 -0.647,-1.526c-0.434,-0.396 -1.004,-0.598 -1.728,-0.598c-1.091,-0 -1.931,0.482 -2.52,1.448l1.149,0.695c0.164,-0.27 0.357,-0.483 0.57,-0.628c0.203,-0.144 0.463,-0.212 0.782,-0.212c0.299,-0 0.54,0.077 0.724,0.241c0.183,0.164 0.27,0.377 0.27,0.657c0,0.289 -0.067,0.531 -0.212,0.724c-0.145,0.193 -0.377,0.415 -0.705,0.666l-2.365,1.892l-0,1.226l4.692,0Z" style="fill:#303030;fill-opacity:0.89;fill-rule:nonzero;"/></g><g><g><path d="M60.662,2.505l0,-1.923l-2.024,0l0,1.923l-1.077,-0l-0,1.805l1.077,0l0,3.102c0,1.703 0.961,2.563 2.869,2.563l0.99,-0l-0,-1.733l-0.845,-0c-0.349,-0 -0.597,-0.073 -0.757,-0.219c-0.16,-0.145 -0.233,-0.378 -0.233,-0.713l0,-3l1.835,0l-0,-1.805l-1.835,-0Z" style="fill:#7a64d3;fill-opacity:0.89;fill-rule:nonzero;"/><path d="M66.618,2.359c-1.136,-0 -2.082,0.379 -2.854,1.136c-0.772,0.757 -1.151,1.674 -1.151,2.766c0,1.093 0.379,2.024 1.151,2.767c0.757,0.743 1.703,1.121 2.854,1.121c1.15,0 2.097,-0.378 2.868,-1.135c0.772,-0.743 1.151,-1.66 1.151,-2.753c-0,-1.092 -0.379,-2.024 -1.151,-2.781c-0.771,-0.742 -1.718,-1.121 -2.868,-1.121Zm-0,1.835c0.568,-0 1.048,0.189 1.441,0.582c0.379,0.393 0.568,0.888 0.568,1.485c0,0.597 -0.204,1.093 -0.597,1.486c-0.393,0.393 -0.888,0.597 -1.456,0.597c-0.568,-0 -1.034,-0.204 -1.398,-0.597c-0.378,-0.393 -0.568,-0.889 -0.568,-1.486c0,-0.597 0.19,-1.092 0.583,-1.485c0.378,-0.393 0.859,-0.582 1.427,-0.582Z" style="fill:#7a64d3;fill-opacity:0.89;fill-rule:nonzero;"/><path d="M73.331,9.975l-0,-3.408c-0,-0.67 0.174,-1.194 0.538,-1.572c0.364,-0.364 0.903,-0.554 1.617,-0.554l-0,-2.038c-0.903,-0 -1.631,0.378 -2.17,1.121l0,-1.019l-2.024,-0l0,7.47l2.039,-0Z" style="fill:#7a64d3;fill-opacity:0.89;fill-rule:nonzero;"/><path d="M81.427,7.237c-0.437,0.728 -1.049,1.092 -1.835,1.092c-0.597,0 -1.063,-0.189 -1.427,-0.582c-0.364,-0.379 -0.553,-0.874 -0.553,-1.486c-0,-0.611 0.189,-1.106 0.553,-1.485c0.364,-0.378 0.83,-0.568 1.427,-0.568c0.786,0 1.398,0.364 1.835,1.092l1.587,-0.99c-0.772,-1.296 -1.937,-1.951 -3.495,-1.951c-1.15,-0 -2.082,0.379 -2.825,1.121c-0.742,0.757 -1.121,1.689 -1.121,2.781c0,1.093 0.379,2.024 1.121,2.767c0.743,0.743 1.675,1.121 2.825,1.121c1.529,0 2.694,-0.64 3.48,-1.907l-1.572,-1.005Z" style="fill:#7a64d3;fill-opacity:0.89;fill-rule:nonzero;"/><path d="M85.635,0l-2.024,0l0,9.975l2.024,-0l0,-4.078c0,-0.509 0.146,-0.917 0.452,-1.223c0.305,-0.291 0.698,-0.437 1.194,-0.437c0.422,0 0.757,0.131 1.004,0.408c0.248,0.277 0.364,0.641 0.364,1.092l0,4.238l2.01,-0l-0,-4.587c-0,-0.903 -0.262,-1.631 -0.787,-2.184c-0.524,-0.554 -1.223,-0.83 -2.096,-0.83c-0.481,-0 -0.903,0.087 -1.296,0.276c-0.393,0.189 -0.67,0.393 -0.845,0.612l0,-3.262Z" style="fill:#7a64d3;fill-opacity:0.89;fill-rule:nonzero;"/></g><g><path d="M61.832,14.358c0.568,-0 1.034,0.189 1.427,0.568c0.394,0.393 0.583,0.859 0.583,1.397c-0,0.554 -0.189,1.02 -0.568,1.398c-0.393,0.379 -0.874,0.568 -1.442,0.568c-0.538,0 -0.99,-0.189 -1.354,-0.568c-0.378,-0.378 -0.568,-0.844 -0.568,-1.398c0,-0.538 0.19,-1.004 0.568,-1.397c0.364,-0.379 0.816,-0.568 1.354,-0.568Zm-0.014,8.504c1.252,-0 2.228,-0.335 2.941,-0.991c0.714,-0.655 1.063,-1.47 1.063,-2.475l0,-6.742l-2.009,-0l-0,0.553c-0.568,-0.451 -1.282,-0.67 -2.155,-0.67c-1.005,0 -1.879,0.364 -2.607,1.093c-0.742,0.742 -1.107,1.63 -1.107,2.679c0,1.048 0.365,1.937 1.107,2.65c0.728,0.728 1.602,1.092 2.607,1.092c0.888,0 1.616,-0.233 2.155,-0.684l-0,0.204c-0,0.524 -0.175,0.917 -0.524,1.179c-0.365,0.277 -0.86,0.408 -1.5,0.408c-0.918,-0 -1.631,-0.35 -2.126,-1.034l-1.456,0.99c0.815,1.165 2.024,1.748 3.611,1.748Z" style="fill:#7a64d3;fill-opacity:0.89;fill-rule:nonzero;"/><path d="M73.962,18.522l-1.514,-0.932c-0.466,0.656 -1.122,0.99 -1.981,0.99c-0.509,0 -0.946,-0.145 -1.296,-0.422c-0.349,-0.277 -0.582,-0.655 -0.684,-1.136l5.708,0c0,-0.014 0,-0.058 0.015,-0.131c-0,-0.073 -0,-0.174 0.014,-0.291l0,-0.291c0,-1.107 -0.335,-2.024 -1.019,-2.738c-0.684,-0.713 -1.616,-1.063 -2.767,-1.063c-1.15,0 -2.097,0.379 -2.839,1.122c-0.743,0.757 -1.107,1.689 -1.107,2.781c0,1.121 0.364,2.053 1.092,2.781c0.714,0.743 1.66,1.107 2.84,1.107c1.572,-0 2.752,-0.597 3.538,-1.777Zm-3.538,-4.354c0.422,0 0.801,0.117 1.121,0.35c0.32,0.233 0.539,0.568 0.641,1.005l-3.626,-0c0.276,-0.903 0.903,-1.355 1.864,-1.355Z" style="fill:#7a64d3;fill-opacity:0.89;fill-rule:nonzero;"/><path d="M78.796,12.508c-1.135,0 -2.082,0.379 -2.854,1.136c-0.771,0.757 -1.15,1.675 -1.15,2.767c0,1.092 0.379,2.024 1.15,2.766c0.758,0.743 1.704,1.122 2.854,1.122c1.151,-0 2.097,-0.379 2.869,-1.136c0.772,-0.743 1.15,-1.66 1.15,-2.752c0,-1.092 -0.378,-2.024 -1.15,-2.781c-0.772,-0.743 -1.718,-1.122 -2.869,-1.122Zm0,1.835c0.568,0 1.049,0.189 1.442,0.583c0.379,0.393 0.568,0.888 0.568,1.485c-0,0.597 -0.204,1.092 -0.597,1.485c-0.393,0.393 -0.888,0.597 -1.456,0.597c-0.568,0 -1.034,-0.204 -1.398,-0.597c-0.379,-0.393 -0.568,-0.888 -0.568,-1.485c0,-0.597 0.189,-1.092 0.582,-1.485c0.379,-0.394 0.86,-0.583 1.427,-0.583Z" style="fill:#7a64d3;fill-opacity:0.89;fill-rule:nonzero;"/><path d="M85.466,12.654l-1.995,-0l-0,7.47l2.024,-0l-0,-4.121c-0,-0.495 0.145,-0.888 0.422,-1.179c0.277,-0.292 0.641,-0.437 1.092,-0.437c0.393,-0 0.699,0.131 0.918,0.393c0.218,0.262 0.334,0.611 0.334,1.048l0,4.296l1.995,-0l0,-4.121c0,-0.495 0.146,-0.888 0.423,-1.179c0.276,-0.292 0.64,-0.437 1.092,-0.437c0.393,-0 0.699,0.131 0.917,0.393c0.219,0.262 0.335,0.611 0.335,1.048l0,4.296l2.01,-0l-0,-4.631c-0,-0.888 -0.263,-1.616 -0.772,-2.155c-0.524,-0.538 -1.238,-0.815 -2.141,-0.815c-0.975,-0 -1.791,0.335 -2.446,1.019c-0.51,-0.684 -1.223,-1.019 -2.141,-1.019c-0.815,-0 -1.499,0.291 -2.067,0.874l-0,-0.743Z" style="fill:#7a64d3;fill-opacity:0.89;fill-rule:nonzero;"/><path d="M103.187,18.522l-1.514,-0.932c-0.466,0.656 -1.122,0.99 -1.981,0.99c-0.509,0 -0.946,-0.145 -1.296,-0.422c-0.349,-0.277 -0.582,-0.655 -0.684,-1.136l5.708,0c-0,-0.014 -0,-0.058 0.015,-0.131c-0,-0.073 -0,-0.174 0.014,-0.291l0,-0.291c0,-1.107 -0.335,-2.024 -1.019,-2.738c-0.685,-0.713 -1.617,-1.063 -2.767,-1.063c-1.15,0 -2.097,0.379 -2.839,1.122c-0.743,0.757 -1.107,1.689 -1.107,2.781c-0,1.121 0.364,2.053 1.092,2.781c0.714,0.743 1.66,1.107 2.84,1.107c1.572,-0 2.752,-0.597 3.538,-1.777Zm-3.538,-4.354c0.422,0 0.8,0.117 1.121,0.35c0.32,0.233 0.539,0.568 0.64,1.005l-3.625,-0c0.276,-0.903 0.902,-1.355 1.864,-1.355Z" style="fill:#7a64d3;fill-opacity:0.89;fill-rule:nonzero;"/><path d="M106.74,12.654l-0,-1.922l-2.024,-0l-0,1.922l-1.078,-0l0,1.806l1.078,-0l-0,3.101c-0,1.704 0.961,2.563 2.869,2.563l0.99,-0l-0,-1.733l-0.845,0c-0.349,0 -0.597,-0.073 -0.757,-0.218c-0.16,-0.146 -0.233,-0.379 -0.233,-0.714l-0,-2.999l1.835,-0l-0,-1.806l-1.835,-0Z" style="fill:#7a64d3;fill-opacity:0.89;fill-rule:nonzero;"/><path d="M111.371,20.124l-0,-3.407c-0,-0.67 0.174,-1.194 0.538,-1.573c0.364,-0.364 0.903,-0.553 1.617,-0.553l-0,-2.039c-0.903,-0 -1.631,0.379 -2.17,1.121l-0,-1.019l-2.024,-0l-0,7.47l2.039,-0Z" style="fill:#7a64d3;fill-opacity:0.89;fill-rule:nonzero;"/><path d="M116.278,12.013l-0,-1.864l-2.024,0l-0,1.864l2.024,0Zm-0,8.111l-0,-7.47l-2.024,-0l-0,7.47l2.024,-0Z" style="fill:#7a64d3;fill-opacity:0.89;fill-rule:nonzero;"/><path d="M122.816,17.386c-0.437,0.728 -1.049,1.093 -1.835,1.093c-0.597,-0 -1.063,-0.19 -1.427,-0.583c-0.364,-0.379 -0.553,-0.874 -0.553,-1.485c-0,-0.612 0.189,-1.107 0.553,-1.485c0.364,-0.379 0.83,-0.568 1.427,-0.568c0.786,-0 1.398,0.364 1.835,1.092l1.587,-0.99c-0.772,-1.296 -1.937,-1.952 -3.495,-1.952c-1.15,0 -2.082,0.379 -2.825,1.122c-0.742,0.757 -1.121,1.689 -1.121,2.781c0,1.092 0.379,2.024 1.121,2.766c0.743,0.743 1.675,1.122 2.825,1.122c1.529,-0 2.694,-0.641 3.48,-1.908l-1.572,-1.005Z" style="fill:#7a64d3;fill-opacity:0.89;fill-rule:nonzero;"/></g></g></g></svg>