<?xml version="1.0" encoding="UTF-8" standalone="no"?>
<!DOCTYPE svg PUBLIC "-//W3C//DTD SVG 1.1//EN" "http://www.w3.org/Graphics/SVG/1.1/DTD/svg11.dtd">
<svg width="100%" height="100%" viewBox="0 0 594 152" version="1.1" xmlns="http://www.w3.org/2000/svg" xmlns:xlink="http://www.w3.org/1999/xlink" xml:space="preserve" xmlns:serif="http://www.serif.com/" style="fill-rule:evenodd;clip-rule:evenodd;stroke-linejoin:round;stroke-miterlimit:2;">
    <g transform="matrix(1,0,0,1,-19.7881,-52.2451)">
        <g transform="matrix(0.0678823,0,0,0.0678823,92.1958,124.653)">
            <g transform="matrix(1,0,0,1,-1066.67,-1066.67)">
                <g transform="matrix(16.6667,0,0,16.6667,0,0)">
                    <path d="M111.6,103.54c10.26,-12.13 19.02,-33.92 9.97,-58.94c-4.41,-12.18 -9.39,-18.98 -15.19,-23.3c-3.53,-2.63 -17.63,-9.25 -36.3,-6.36c-13.65,2.12 -31.88,10.73 -43.73,24.74c-11.49,13.61 -20.36,24.36 -20.77,34.8c-0.53,13.43 9.59,24.97 10.82,26.84c2.19,3.32 17.13,22.3 45.2,23.27c24.78,0.85 40.92,-10.31 50,-21.05Z" style="fill:#403d3e;fill-rule:nonzero;"/>
                </g>
                <g transform="matrix(16.6667,0,0,16.6667,0,0)">
                    <path d="M28.43,13.9c-12.93,9.23 -27.46,28.11 -24.85,54.59c1.27,12.89 4.44,20.71 8.99,26.32c2.77,3.42 14.79,13.59 33.62,15.09c18.98,1.51 33.41,-2.74 48.48,-13.22c30.63,-21.31 26.12,-53.53 24.81,-57.28c-1.31,-3.75 -11.12,-25.83 -38.09,-33.68c-23.8,-6.92 -41.52,-0 -52.96,8.18Z" style="fill:#5e6367;fill-rule:nonzero;"/>
                </g>
                <g transform="matrix(16.6667,0,0,16.6667,0,0)">
                    <path d="M51.15,15.69c-14.21,-0.51 -27.79,10.62 -29.1,24.36c-1.31,13.73 7.19,24.19 20.43,26.32c13.24,2.12 28.55,-5.92 31.63,-22.76c3.18,-17.35 -9.39,-27.43 -22.96,-27.92Z" style="fill:#fff;fill-rule:nonzero;"/>
                </g>
                <g transform="matrix(16.6667,0,0,16.6667,0,0)">
                    <path d="M55.54,39.21c0,0 3.42,-0.71 4.1,-5.75c0.67,-4.96 -1.79,-9.19 -7.53,-10.71c-6.24,-1.65 -10.47,1.78 -11.57,5.39c-1.53,5.02 0.73,7.41 0.73,7.41c0,0 -6.12,1.47 -6.61,8.69c-0.46,6.81 4.19,10.47 8.86,11.59c5.77,1.39 12.31,-0.19 13.91,-7.55c1.33,-6.06 -1.89,-9.07 -1.89,-9.07Z" style="fill:#303030;fill-rule:nonzero;"/>
                </g>
                <g transform="matrix(16.6667,0,0,16.6667,0,0)">
                    <path d="M45.92,30.03c-0.55,2.07 0.55,4.07 2.71,4.62c2.33,0.59 4.45,-0.18 5.02,-2.56c0.5,-2.11 -0.5,-3.97 -2.96,-4.57c-2.02,-0.5 -4.17,0.25 -4.77,2.51Z" style="fill:#fff;fill-rule:nonzero;"/>
                </g>
                <g transform="matrix(16.6667,0,0,16.6667,0,0)">
                    <path d="M47.68,40.32c-2.62,-0.81 -6.08,0.2 -6.63,3.72c-0.55,3.52 1.56,5.32 4.32,5.82c2.76,0.5 5.37,-0.95 5.88,-3.77c0.5,-2.81 -0.96,-4.97 -3.57,-5.77Z" style="fill:#fff;fill-rule:nonzero;"/>
                </g>
            </g>
        </g>
        <g transform="matrix(4.6698,0,0,4.6698,-1012.89,-1799.02)">
            <path d="M263.736,406.482l0,-4.224l-4.448,0l0,4.224l-2.368,0l0,3.968l2.368,0l0,6.816c0,3.744 2.112,5.632 6.304,5.632l2.176,0l0,-3.808l-1.856,0c-0.768,0 -1.312,-0.16 -1.664,-0.48c-0.352,-0.32 -0.512,-0.832 -0.512,-1.568l0,-6.592l4.032,0l0,-3.968l-4.032,0Z" style="fill:#6e56cf;fill-opacity:0.89;fill-rule:nonzero;"/>
            <path d="M276.568,410.226c1.248,0 2.272,0.416 3.136,1.248c0.864,0.864 1.28,1.888 1.28,3.072c0,1.216 -0.416,2.24 -1.248,3.072c-0.864,0.832 -1.92,1.248 -3.168,1.248c-1.184,0 -2.176,-0.416 -2.976,-1.248c-0.832,-0.832 -1.248,-1.856 -1.248,-3.072c0,-1.184 0.416,-2.208 1.248,-3.072c0.8,-0.832 1.792,-1.248 2.976,-1.248Zm-0.032,18.688c2.752,0 4.896,-0.736 6.464,-2.176c1.568,-1.44 2.336,-3.232 2.336,-5.44l0,-14.816l-4.416,0l0,1.216c-1.248,-0.992 -2.816,-1.472 -4.736,-1.472c-2.208,0 -4.128,0.8 -5.728,2.4c-1.632,1.632 -2.432,3.584 -2.432,5.888c0,2.304 0.8,4.256 2.432,5.824c1.6,1.6 3.52,2.4 5.728,2.4c1.952,0 3.552,-0.512 4.736,-1.504l0,0.448c0,1.152 -0.384,2.016 -1.152,2.592c-0.8,0.608 -1.888,0.896 -3.296,0.896c-2.016,0 -3.584,-0.768 -4.672,-2.272l-3.2,2.176c1.792,2.56 4.448,3.84 7.936,3.84Z" style="fill:#6e56cf;fill-opacity:0.89;fill-rule:nonzero;"/>
            <path d="M295.96,410.354c1.216,0 2.24,0.416 3.072,1.28c0.832,0.864 1.248,1.888 1.248,3.136c0,1.216 -0.416,2.24 -1.248,3.104c-0.832,0.864 -1.856,1.312 -3.072,1.312c-1.248,0 -2.304,-0.448 -3.168,-1.312c-0.864,-0.864 -1.312,-1.888 -1.312,-3.104c0,-1.248 0.416,-2.272 1.28,-3.136c0.864,-0.864 1.92,-1.28 3.2,-1.28Zm0.384,12.768c2.272,0 4.224,-0.832 5.856,-2.464c1.632,-1.632 2.432,-3.648 2.432,-5.984c0,-2.336 -0.8,-4.32 -2.432,-5.952c-1.632,-1.6 -3.584,-2.4 -5.856,-2.4c-1.952,0 -3.552,0.48 -4.8,1.44l0,-1.28l-4.448,0l0,22.048l4.448,0l0,-6.88c1.248,0.992 2.848,1.472 4.8,1.472Z" style="fill:#6e56cf;fill-opacity:0.89;fill-rule:nonzero;"/>
            <path d="M314.648,406.162c-2.496,0 -4.576,0.832 -6.272,2.496c-1.696,1.664 -2.528,3.68 -2.528,6.08c0,2.4 0.832,4.448 2.528,6.08c1.664,1.632 3.744,2.464 6.272,2.464c2.528,0 4.608,-0.832 6.304,-2.496c1.696,-1.632 2.528,-3.648 2.528,-6.048c0,-2.4 -0.832,-4.448 -2.528,-6.112c-1.696,-1.632 -3.776,-2.464 -6.304,-2.464Zm0,4.032c1.248,0 2.304,0.416 3.168,1.28c0.832,0.864 1.248,1.952 1.248,3.264c0,1.312 -0.448,2.4 -1.312,3.264c-0.864,0.864 -1.952,1.312 -3.2,1.312c-1.248,0 -2.272,-0.448 -3.072,-1.312c-0.832,-0.864 -1.248,-1.952 -1.248,-3.264c0,-1.312 0.416,-2.4 1.28,-3.264c0.832,-0.864 1.888,-1.28 3.136,-1.28Z" style="fill:#2955b4;fill-opacity:0.89;fill-rule:nonzero;"/>
            <path d="M333.432,406.162c-2.496,0 -4.576,0.832 -6.272,2.496c-1.696,1.664 -2.528,3.68 -2.528,6.08c0,2.4 0.832,4.448 2.528,6.08c1.664,1.632 3.744,2.464 6.272,2.464c2.528,0 4.608,-0.832 6.304,-2.496c1.696,-1.632 2.528,-3.648 2.528,-6.048c0,-2.4 -0.832,-4.448 -2.528,-6.112c-1.696,-1.632 -3.776,-2.464 -6.304,-2.464Zm0,4.032c1.248,0 2.304,0.416 3.168,1.28c0.832,0.864 1.248,1.952 1.248,3.264c0,1.312 -0.448,2.4 -1.312,3.264c-0.864,0.864 -1.952,1.312 -3.2,1.312c-1.248,0 -2.272,-0.448 -3.072,-1.312c-0.832,-0.864 -1.248,-1.952 -1.248,-3.264c0,-1.312 0.416,-2.4 1.28,-3.264c0.832,-0.864 1.888,-1.28 3.136,-1.28Z" style="fill:#ff4f00;fill-opacity:0.89;fill-rule:nonzero;"/>
            <rect x="343.704" y="400.978" width="4.48" height="21.92" style="fill:#6e56cf;fill-opacity:0.89;fill-rule:nonzero;"/>
        </g>
        <path d="M544.175,116.509c5.827,-0 10.759,1.942 14.794,5.977c3.885,4.035 5.827,9.116 5.827,15.242c0,6.127 -2.092,11.208 -6.126,15.243c-4.035,4.034 -9.116,6.126 -14.944,6.126c-5.828,0 -10.61,-2.092 -14.345,-6.126c-3.886,-4.035 -5.828,-9.116 -5.828,-15.243c-0,-6.126 1.942,-11.207 5.977,-15.242c3.885,-4.035 8.817,-5.977 14.645,-5.977Z" style="fill:#fff;"/>
        <path d="M456.457,116.509c5.828,-0 10.759,1.942 14.794,5.977c3.885,4.035 5.828,9.116 5.828,15.242c-0,6.127 -2.092,11.208 -6.127,15.243c-4.035,4.034 -9.115,6.126 -14.943,6.126c-5.828,0 -10.61,-2.092 -14.346,-6.126c-3.885,-4.035 -5.828,-9.116 -5.828,-15.243c0,-6.126 1.943,-11.207 5.978,-15.242c3.885,-4.035 8.816,-5.977 14.644,-5.977Z" style="fill:#fff;"/>
        <g transform="matrix(0.278989,0,0,0.278989,403.937,71.5167)">
            <g transform="matrix(133.816,0,0,133.816,151.587,284.096)">
                <path d="M0.528,-0l0,-0.127l-0.276,0l0.118,-0.09c0.056,-0.043 0.096,-0.084 0.121,-0.122c0.024,-0.038 0.036,-0.083 0.036,-0.136c0,-0.063 -0.022,-0.116 -0.067,-0.158c-0.045,-0.041 -0.104,-0.062 -0.179,-0.062c-0.113,0 -0.2,0.05 -0.261,0.15l0.119,0.072c0.017,-0.028 0.037,-0.05 0.059,-0.065c0.021,-0.015 0.048,-0.022 0.081,-0.022c0.031,0 0.056,0.008 0.075,0.025c0.019,0.017 0.028,0.039 0.028,0.068c-0,0.03 -0.007,0.055 -0.022,0.075c-0.015,0.02 -0.039,0.043 -0.073,0.069l-0.245,0.196l-0,0.127l0.486,-0Z" style="fill:#303030;fill-opacity:0.89;fill-rule:nonzero;"/>
            </g>
        </g>
        <g transform="matrix(0.278989,0,0,0.278989,491.15,71.1247)">
            <g transform="matrix(133.816,0,0,133.816,151.587,284.096)">
                <path d="M0.282,0.012c0.077,0 0.141,-0.024 0.19,-0.073c0.049,-0.048 0.073,-0.108 0.073,-0.181c0,-0.069 -0.022,-0.126 -0.067,-0.169c-0.045,-0.043 -0.102,-0.064 -0.171,-0.064c-0.041,0 -0.079,0.011 -0.114,0.032l0.021,-0.106l0.272,0l-0,-0.137l-0.374,0l-0.069,0.374l0.12,0.037c0.009,-0.02 0.024,-0.038 0.044,-0.054c0.019,-0.015 0.044,-0.023 0.075,-0.023c0.035,0 0.064,0.01 0.086,0.031c0.022,0.021 0.033,0.048 0.033,0.083c-0,0.035 -0.011,0.064 -0.033,0.085c-0.023,0.021 -0.051,0.032 -0.086,0.032c-0.056,0 -0.099,-0.03 -0.13,-0.089l-0.122,0.072c0.051,0.1 0.135,0.15 0.252,0.15Z" style="fill:#303030;fill-opacity:0.89;fill-rule:nonzero;"/>
            </g>
        </g>
    </g>
</svg>
